<?xml version="1.0" encoding="utf-8"?>
<!-- Generator: Adobe Illustrator 19.0.0, SVG Export Plug-In . SVG Version: 6.00 Build 0)  -->
<svg version="1.1" id="Layer_1" xmlns="http://www.w3.org/2000/svg" xmlns:xlink="http://www.w3.org/1999/xlink" x="0px" y="0px"
	 viewBox="0 0 612 792" style="enable-background:new 0 0 612 792;" xml:space="preserve">
<g>
	<path d="M317,485c-6.3,0-12.7,0-19,0c-0.9-0.3-1.8-0.7-2.8-0.9c-36.1-5.4-65-31.6-73.8-67c-0.9-3.7-1.7-7.4-2.5-11.1
		c0-6.3,0-12.7,0-19c0.9-0.7,0.8-1.8,0.9-2.7c6.3-35.4,26.7-58.8,60.3-70.9c5.7-2,11.8-2.9,17.8-4.4c6.3,0,12.7,0,19,0
		c0.7,0.9,1.8,0.8,2.7,0.9c35.8,5.4,64.1,31,72.8,66c0.9,3.7,1.7,7.4,2.5,11.1c0,6.3,0,12.7,0,19c-0.3,1.1-0.8,2.2-0.9,3.3
		c-5.2,35.6-31.6,64.8-66.5,73.3C324,483.4,320.5,484.2,317,485z M277.1,407c5,0,10,0.3,15-0.1c4.3-0.3,5.2,1.3,5.1,5.3
		c-0.3,9.8-0.1,19.6-0.1,29.5c0,7.5,3.9,12.2,10.1,12.4c6.3,0.2,10.5-4.7,10.6-12.4c0.1-10.2,0.1-20.3-0.1-30.5
		c-0.1-3.2,0.8-4.3,4.2-4.2c10.2,0.2,20.3,0,30.5,0.1c4.3,0,7.9-1.3,10.2-5c4.4-7-0.6-15.4-9.6-15.6c-9.6-0.3-19.3-0.3-29,0
		c-4.8,0.2-6.7-0.8-6.4-6.1c0.5-9.5,0.2-19,0.1-28.5c-0.1-7.1-4.2-11.7-10.2-11.8c-6.2-0.1-10.4,4.7-10.5,12c-0.1,10-0.2,20,0.1,30
		c0.1,3.5-1,4.5-4.5,4.4c-10.2-0.2-20.3-0.1-30.5-0.1c-7.4,0.1-12.2,4.1-12.2,10.3c0,6.2,4.8,10.3,12.1,10.4
		C267.1,407,272.1,407,277.1,407z"/>
</g>
</svg>
