<?xml version="1.0" encoding="utf-8"?>
<!-- Generator: Adobe Illustrator 19.0.0, SVG Export Plug-In . SVG Version: 6.00 Build 0)  -->
<svg version="1.1" id="Layer_1" xmlns="http://www.w3.org/2000/svg" xmlns:xlink="http://www.w3.org/1999/xlink" x="0px" y="0px"
	 viewBox="0 0 612 792" style="enable-background:new 0 0 612 792;" xml:space="preserve">
<style type="text/css">
	.st0{fill:#FFFFFF;}
</style>
<g>
	<path class="st0" d="M235.2,152.3c6.4,0,12.8,0,19.2,0c7.5,1.1,15,1.9,22.4,3.5c33.1,7.4,61.2,23.4,83.8,48.7
		c23,25.7,36.1,55.8,39.1,89.9c3.1,34.8-4.7,67.2-23.5,96.8c-1.9,2.9-1.6,4.5,0.8,6.9c39.2,38.9,78.2,77.8,117.3,116.7
		c1.3,1.3,2.7,2.5,4,3.8c0,0.3,0,0.5,0,0.8c-1.4,0.3-2.1,1.6-3,2.5c-11.8,11.8-23.6,23.5-35.3,35.3c-0.9,0.9-2.2,1.6-2.5,3
		c-0.3,0-0.5,0-0.8,0c0-0.1,0-0.3-0.1-0.4c-40.7-40.5-81.4-81-122-121.6c-1.4-1.4-2.5-1.4-4.1-0.4c-3,2-6,3.9-9.2,5.7
		c-31.6,17.6-65.1,23.9-100.9,18.3c-33.9-5.3-62.9-20.4-86.9-44.7c-23.5-23.8-37.8-52.5-42.9-85.6c-0.7-4.3-1.3-8.6-1.9-13
		c0-6.9,0-13.9,0-20.8c0.5-3.7,1.1-7.3,1.6-11c3.2-24,11.6-46.2,25.4-66.1c25.6-36.7,60.4-59.2,104.9-66.4
		C225.5,153.7,230.4,153,235.2,152.3z M244.8,420.3c61.5-0.1,111.7-50.4,111.7-111.8c0-61.4-50.1-111.5-111.7-111.8
		c-61.4-0.2-112.2,50.6-111.9,112C133.1,370.3,183.4,420.4,244.8,420.3z"/>
</g>
</svg>
