<?xml version="1.0" encoding="utf-8"?>
<!-- Generator: Adobe Illustrator 19.0.0, SVG Export Plug-In . SVG Version: 6.00 Build 0)  -->
<svg version="1.1" id="Layer_1" xmlns="http://www.w3.org/2000/svg" xmlns:xlink="http://www.w3.org/1999/xlink" x="0px" y="0px"
	 viewBox="0 0 612 792" style="enable-background:new 0 0 612 792;" xml:space="preserve">
<style type="text/css">
	.st0{fill:#39A257;}
</style>
<g>
	<path class="st0" d="M358,457c-34,0-68,0-102,0c-4.1-1.9-7.2-4.8-9-9c0-34,0-68,0-102c1.8-4.2,4.9-7.1,9-9c34,0,68,0,102,0
		c4.1,1.9,7.2,4.8,9,9c0,34,0,68,0,102C365.2,452.2,362.1,455.1,358,457z M341.4,380.1c-0.1-3.8-2.6-5.9-5.5-7.6
		c-3.1-1.8-5.4,0-7.5,2.1c-9.2,9.1-18.4,18.3-27.5,27.5c-2.3,2.3-3.8,2.5-6,0c-2.3-2.6-4.8-5-7.4-7.4c-3.9-3.6-6.7-3.5-10.3,0.1
		c-3.6,3.6-3.8,6.6-0.2,10.4c5.6,5.7,11.3,11.3,16.9,17c2.8,2.9,5.3,2.7,8.1-0.1c12.2-12.3,24.5-24.5,36.7-36.7
		C340.2,383.9,341.6,382.4,341.4,380.1z"/>
</g>
</svg>
