<?xml version="1.0" encoding="utf-8"?>
<!-- Generator: Adobe Illustrator 19.0.0, SVG Export Plug-In . SVG Version: 6.00 Build 0)  -->
<svg version="1.1" id="Capa_1" xmlns="http://www.w3.org/2000/svg" xmlns:xlink="http://www.w3.org/1999/xlink" x="0px" y="0px"
	 viewBox="-49 141 512 512" style="enable-background:new -49 141 512 512;" xml:space="preserve">
<g>
	<path d="M346.5,447.3c-5.9-5.9-9.5-13.7-10.3-21.9c0-0.3,0.2,1.5-2.9-24.5C381.8,389,418,345.2,418,293
		c0-69.3-63.1-122-131.6-109.1c-44.8-52.4-122-57.7-172.7-10.8c-22.2,20.5-36,48.3-38.9,78.2c-21.9,181.9-20.9,173.7-20.9,174
		c-0.8,8.3-4.5,16-10.3,21.9l-28.2,28.2C2.8,487.9-4,504.5-4,522.1c0,36.3,29.6,65.9,65.9,65.9h55.5c6.9,36.3,38.7,65,77.6,65
		c38.9,0,70.7-28.7,77.6-65h55.5c36.3,0,65.9-29.6,65.9-65.9c0-17.6-6.9-34.2-19.3-46.6L346.5,447.3z M388,293c0,44.7-36.3,81-81,81
		s-81-36.3-81-81s36.3-81,81-81S388,248.3,388,293z M195,623c-21.9,0-40.5-14.7-46.7-35h93.5C235.5,608.3,216.9,623,195,623L195,623
		z M328.1,558H61.9C42.1,558,26,541.9,26,522.1c0-9.6,3.7-18.6,10.5-25.4l28.2-28.2c10.7-10.7,17.5-24.9,19-40
		c21.8-181,20.9-173.7,20.9-174c4.6-46.8,44.3-83.5,90.4-83.5c22.2,0,43.7,8.7,60.3,23.8C220.1,213.4,196,250.4,196,293
		c0,60,47.8,109,107.4,110.9l3,24.5c1.5,15.1,8.2,29.3,19,40l28.2,28.2c6.8,6.8,10.5,15.8,10.5,25.4C364,541.9,347.9,558,328.1,558z
		"/>
</g>
</svg>
