<?xml version="1.0" encoding="utf-8"?>
<!-- Generator: Adobe Illustrator 19.0.0, SVG Export Plug-In . SVG Version: 6.00 Build 0)  -->
<svg version="1.1" id="Layer_1" xmlns="http://www.w3.org/2000/svg" xmlns:xlink="http://www.w3.org/1999/xlink" x="0px" y="0px"
	 viewBox="0 0 612 792" style="enable-background:new 0 0 612 792;" xml:space="preserve">
<g id="XMLID_1_">
	<path id="XMLID_17_" d="M435.7,588.7c-73,0-146,0-219,0c-0.6-0.2-1.1-0.5-1.7-0.6c-22.7-4-37.4-17.2-44.3-39.1
		c-0.9-2.7-1.3-5.5-2-8.3c0-97.5,0-195,0-292.5c0.2-0.6,0.6-1.1,0.7-1.7c3.8-20.5,15.9-33.7,35.7-40c2.3-0.7,4.8-1.2,7.1-1.8
		c74.5,0,149,0,223.5,0c4.2,1.8,7.2,4.8,9,9c0,94,0,188,0,282c-2.9,6.8-8.1,9.1-15.4,9.1c-59.1-0.2-118.2-0.1-177.3-0.1
		c-10.1,0-20.2-0.1-30.4,0.1c-15.6,0.3-28.7,13.6-28.9,29.2c-0.3,17.2,13.2,30.7,30.8,30.8c68.5,0,136.9,0.1,205.4-0.1
		c7.4,0,12.8,2.1,15.8,9.1c0,2,0,4,0,6C442.9,583.9,439.9,586.9,435.7,588.7z M222.8,354.8c0-40,0-80,0-119.9c0-5.2-1.3-6.4-6.5-6
		c-12.8,0.9-23.5,11.9-23.5,24.8c-0.1,76.1-0.1,152.2,0,228.3c0,4.6,2.3,6.2,6.5,4.2c5.7-2.6,11.7-4.3,17.9-5.1
		c5.5-0.8,5.7-1.1,5.7-6.6C222.8,434.5,222.8,394.6,222.8,354.8z"/>
	<path id="XMLID_16_" d="M444.7,537.7c-2.9,6.8-8.1,9.1-15.4,9.1c-68.1-0.2-136.1-0.1-204.2-0.1c-2,0-4,0.1-5.9-0.6
		c-5.7-2-9.2-7.4-8.3-13.1c0.8-5.7,5.7-10.1,11.6-10.3c6.1-0.1,12.2,0,18.4,0c62.7,0,125.4,0.1,188.1-0.1c7.4,0,12.8,2.1,15.8,9.1
		C444.7,533.7,444.7,535.7,444.7,537.7z"/>
</g>
</svg>
