<?xml version="1.0" encoding="utf-8"?>
<!-- Generator: Adobe Illustrator 19.0.0, SVG Export Plug-In . SVG Version: 6.00 Build 0)  -->
<svg version="1.1" id="Layer_1" xmlns="http://www.w3.org/2000/svg" xmlns:xlink="http://www.w3.org/1999/xlink" x="0px" y="0px"
	 viewBox="0 0 612 792" style="enable-background:new 0 0 612 792;" xml:space="preserve">
<g id="XMLID_1_">
	<path id="XMLID_13_" d="M124,497c0-4.3,0-8.7,0-13c0.3-0.8,0.8-1.5,0.9-2.3c5.3-25.6,29.4-40.9,54.8-34.9
		c11.8,2.8,20.3,10.2,28.1,18.8c3.5,3.9,7.1,7.6,10.7,11.4c0.4-0.2,0.8-0.3,1.1-0.5c0-1.9,0-3.9,0-5.8c0-60.5,0-120.9,0-181.4
		c0-15-0.3-30,0.2-45c1-28.2,29.1-48.4,56.3-40.7c20.1,5.7,33.5,23.4,33.6,44.9c0.1,28.8,0.1,57.6,0,86.4c0,3.1,0.2,4.2,4,3.3
		c19.6-4.5,37.7,2.9,48.7,20c1.9,2.9,3.2,2.7,6,1.7c20.3-7.6,42.1-0.4,53.7,17.8c2,3.2,3.6,3.3,6.7,2.1c25.3-9.4,52.7,5.2,59.2,31.4
		c0.8,3.2,1.2,6.5,1.9,9.7c0,53,0,106,0,159c-0.3,1.4-0.7,2.9-0.9,4.3c-2.8,30.6-22.7,55.7-51.8,65c-4.7,1.5-9.6,2.4-14.3,3.7
		c-46.3,0-92.7,0-139,0c-3.5-0.8-7-1.6-10.5-2.5c-17.9-4.5-31-15.7-43.2-28.9c-27.7-30.1-55.8-59.9-83.9-89.6
		C136.6,521.7,127,511.5,124,497z"/>
	<path id="XMLID_12_" d="M275,141c9.4,2,18.8,3.5,27.9,7c42.9,16.5,70.4,59.4,67.3,105.2c-0.2,3.5-0.6,7-1.1,10.4
		c-1.3,8.4-8.8,14.3-16.5,13.2c-8.9-1.4-14.3-9-12.9-18.1c7.7-48-31.5-90.8-80-87.5c-44.1,3-76.3,44.1-69,87.8
		c1.4,8.6-4.3,16.7-12.6,18c-8.1,1.2-15.7-4.7-17-13.2c-8.8-58.7,28.9-111,87.2-121.4c2.3-0.4,4.7,0.3,6.8-1.2
		C261.6,141,268.3,141,275,141z"/>
</g>
</svg>
