<?xml version="1.0" encoding="utf-8"?>
<!-- Generator: Adobe Illustrator 19.0.0, SVG Export Plug-In . SVG Version: 6.00 Build 0)  -->
<svg version="1.1" id="Isolation_Mode" xmlns="http://www.w3.org/2000/svg" xmlns:xlink="http://www.w3.org/1999/xlink" x="0px"
	 y="0px" viewBox="0 0 612 792" style="enable-background:new 0 0 612 792;" xml:space="preserve">
<g id="XMLID_114_">
	<path id="XMLID_116_" d="M299.3,61.5c0-6.6-5.4-12.1-12.1-12.1h-8.4c-6.6,0-12.1,5.4-12.1,12.1v27.8h32.5V61.5z"/>
	<rect id="XMLID_111_" x="274.3" y="83.7" width="17.6" height="25.7"/>
	<path id="XMLID_120_" d="M283.3,98.6c-17,0-30.8,13.8-30.8,30.8s13.8,30.8,30.8,30.8s30.8-13.8,30.8-30.8S300.3,98.6,283.3,98.6z
		 M283.3,143.5c-7.8,0-14.2-6.3-14.2-14.2s6.3-14.2,14.2-14.2c7.8,0,14.2,6.3,14.2,14.2S291.1,143.5,283.3,143.5z"/>
	<polygon id="XMLID_115_" points="260.7,138 199.4,264.1 195.3,300.9 221.2,276.5 280.5,152.8 	"/>
	<path id="XMLID_130_" d="M339.5,207.7l-28.1-57.8c-4.9,6.7-12.1,11.6-20.5,13.4l26.7,55.6C325.3,216.1,332.7,212.4,339.5,207.7z"/>
	<path id="XMLID_124_" d="M345.2,276.5l25.9,24.3l-4.1-36.7l-12.8-26.3c-7.1,4.4-14.5,8.2-22.2,11.2L345.2,276.5z"/>
	<path id="XMLID_122_" d="M283.6,254c-34.6,0-67.1-13.5-91.5-38.1c-4.9-4.9-4.9-12.9,0.1-17.8c4.9-4.9,12.9-4.9,17.8,0.1
		c19.6,19.8,45.8,30.7,73.6,30.7c27.9,0,54.1-10.9,73.7-30.8c4.9-4.9,12.8-5,17.8-0.1c4.9,4.9,5,12.8,0.1,17.8
		C350.9,240.4,318.3,254,283.6,254z"/>
</g>
</svg>
