<?xml version="1.0" encoding="utf-8"?>
<!-- Generator: Adobe Illustrator 19.0.0, SVG Export Plug-In . SVG Version: 6.00 Build 0)  -->
<svg version="1.1" id="Layer_1" xmlns="http://www.w3.org/2000/svg" xmlns:xlink="http://www.w3.org/1999/xlink" x="0px" y="0px"
	 viewBox="0 0 612 792" style="enable-background:new 0 0 612 792;" xml:space="preserve">
<g id="XMLID_1_">
	<path id="XMLID_27_" d="M184.6,540.8c0-80.6,0-161.1,0-241.7c0.1-0.2,0.3-0.3,0.4-0.5c2.6-10.9,8.3-15.3,19.6-15.3
		c10.4,0,20.8,0.1,31.2-0.1c2.7,0,3.7,0.5,3.6,3.4c-0.2,6.1-0.1,12.3,0,18.4c0.1,5.4,2.3,7.5,7.5,7.5c2.4,0,4.9,0,7.3,0
		c37.2,0,74.4,0,111.6,0.1c3.4,0,5.3-1.4,6.5-4.4c0.6-1.4,0.7-2.9,0.7-4.4c0-5.9,0.1-11.9,0-17.8c0-1.9,0.3-2.8,2.6-2.8
		c11.4,0.1,22.9-0.1,34.3,0.1c7.4,0.1,13,3.5,16,10.4c0.8,1.9,1.2,4,1.7,6c0,80.3,0,160.7,0,241c-0.9,2.3-0.8,4.9-1.9,7.2
		c-2.8,6.1-7.9,9.3-14,11.2c-70.4,0-140.8,0-211.2,0c-4.9-1.6-9.3-3.8-12.3-8.2C186,548,185.5,544.4,184.6,540.8z M346.2,362.8
		c-15.6,0-31.1,0-46.7,0c-4.9,0-7.9,2.4-8,6.3c-0.1,3.8,3,6.3,7.9,6.4c0.3,0,0.6,0,1,0c30.3,0,60.6,0,90.8,0c1,0,1.9,0,2.9-0.1
		c3.6-0.5,6.1-3.1,6.1-6.2c0-3.2-2.6-6-6.3-6.3c-0.9-0.1-1.9,0-2.9,0C376.1,362.8,361.1,362.8,346.2,362.8z M345.8,442.3
		c11.4,0,22.9,0,34.3,0c4.4,0,8.9,0.1,13.3,0c4.9-0.2,7.8-4.2,6.2-8.4c-1.4-3.7-4.7-4.2-8.1-4.2c-25.8,0-51.7,0-77.5,0
		c-5,0-10,0-14.9,0c-2.8,0-5.3,0.7-6.8,3.3c-2.6,4.5,0.9,9.3,6.8,9.3C314.7,442.3,330.3,442.3,345.8,442.3z M345.7,509.1
		c11.3,0,22.7,0,34,0c4.8,0,9.5,0.1,14.3-0.1c3.4-0.1,5.8-2.6,6.1-5.8c0.3-3-2-5.8-5.3-6.4c-1.3-0.2-2.7-0.3-4.1-0.3
		c-29.3,0-58.7,0-88,0c-1.3,0-2.6-0.1-3.8,0c-1.3,0.2-2.8,0.3-4,0.9c-2.6,1.3-3.8,3.7-3.2,6.6c0.6,3.2,3,5,6.7,5
		C314.2,509.1,330,509.1,345.7,509.1z M218.7,487.4c-2.8-0.1-4.7,1.3-5.8,3.6c-1.3,2.5-0.7,5,1.2,7c5.5,5.7,11,11.4,16.6,17.1
		c0.4,0.4,0.8,0.6,1.3,0.9c2.5,1.8,5,1.8,7.2-0.3c10.9-10.2,21.8-20.4,32.7-30.6c2.1-2,2.6-4.6,1.2-7.3c-1.3-2.5-3.6-3.5-6.3-3.3
		c-1.8,0.2-3.1,1.3-4.3,2.5c-8.2,7.7-16.4,15.3-24.5,23.1c-2,1.9-3,1.7-4.7-0.2c-3-3.5-6.3-6.8-9.5-10.2
		C222.3,488.4,220.8,487.3,218.7,487.4z M218.6,420.5c-2.9-0.1-4.8,1.5-5.8,3.8c-1.2,2.7-0.4,5.2,1.6,7.2
		c5.1,5.3,10.3,10.7,15.5,15.9c4,4,6.6,4,10.8,0.1c7.8-7.3,15.6-14.6,23.4-22c2.5-2.4,5.2-4.7,7.6-7.2c1.9-1.9,2.6-4.1,1.5-6.7
		c-0.9-2.2-2.5-3.6-5-3.9c-2.4-0.3-4.3,0.7-6,2.4c-8.3,7.9-16.7,15.7-24.9,23.6c-1.5,1.4-2.3,1.5-3.7-0.1c-3.2-3.7-6.6-7.1-10-10.7
		C222.3,421.5,220.7,420.4,218.6,420.5z M218.1,353.7c-2.3-0.1-4.1,1.3-5.2,3.5c-1.2,2.4-0.9,4.9,0.9,6.8
		c5.8,6.1,11.6,12.1,17.6,17.9c2.7,2.6,5.1,2.5,7.9,0c2.8-2.4,5.4-5,8.2-7.6c7.9-7.4,15.8-14.7,23.7-22.1c3.4-3.2,3.5-6.9,0.5-9.7
		c-2.6-2.3-6.1-2.1-9.1,0.7c-8.3,7.8-16.7,15.6-24.9,23.6c-1.8,1.7-2.6,1.6-4.2-0.2c-3.1-3.6-6.5-7-9.7-10.5
		C222.3,354.6,220.6,353.5,218.1,353.7z"/>
	<path id="XMLID_26_" d="M310.6,233.6c2.1,0.8,4.3,1.5,6.4,2.5c6.4,3,10.6,7.9,12.7,14.6c2,6.4,3.5,7.6,10.1,7.6
		c6,0,12.1,0.1,18.1,0c1.9,0,2.6,0.4,2.6,2.5c-0.1,12.3-0.1,24.6,0,36.9c0,2-0.8,2.5-2.6,2.5c-34.4,0-68.9,0-103.3,0
		c-2.1,0-2.7-0.6-2.7-2.7c0.1-12.2,0.1-24.4,0-36.5c0-2.3,0.9-2.6,2.8-2.5c6.4,0.1,12.7,0.1,19.1,0c4.4,0,6.5-1.6,7.6-5.7
		c2.8-10,9.1-16.2,19.3-18.5c0.4-0.1,0.7-0.4,1.1-0.6C304.6,233.6,307.6,233.6,310.6,233.6z"/>
</g>
</svg>
