<?xml version="1.0" encoding="utf-8"?>
<!-- Generator: Adobe Illustrator 19.0.0, SVG Export Plug-In . SVG Version: 6.00 Build 0)  -->
<svg version="1.1" id="Layer_1" xmlns="http://www.w3.org/2000/svg" xmlns:xlink="http://www.w3.org/1999/xlink" x="0px" y="0px"
	 viewBox="0 0 612 792" style="enable-background:new 0 0 612 792;" xml:space="preserve">
<style type="text/css">
	.st0{fill:#0047D1;}
	.st1{fill:#FFFFFF;}
</style>
<circle class="st0" cx="122" cy="396" r="81.3"/>
<g>
	<path class="st1" d="M88.3,418.6c0-0.1,0-0.1,0-0.2c0.3,0,0.4-0.2,0.6-0.4c8.6-7.2,17.1-14.4,25.7-21.6c0.7-0.6,0.4-0.8-0.1-1.2
		c-8.6-7.2-17.1-14.4-25.7-21.5c-0.2-0.2-0.3-0.4-0.6-0.3c0-0.1,0-0.1,0-0.2c1.6-1.9,3.3-3.8,4.8-5.7c0.6-0.7,0.9-0.7,1.6-0.1
		c7.3,6.2,14.6,12.3,21.9,18.4c0.2,0.2,0.4,0.5,0.9,0.4c0-14.8,0-29.7,0-44.6c0.5,0.1,0.8,0.4,1.1,0.6c11,9.1,21.9,18.2,32.9,27.2
		c1.4,1.2,2.8,2.5,4.4,3.5c0,0.1,0,0.1,0,0.2c-0.1,0.1-0.3,0.1-0.4,0.2c-8.7,7.3-17.4,14.7-26.2,22c-0.6,0.5-0.5,0.7,0,1.1
		c8.5,7.1,17,14.3,25.5,21.4c0.8,0.7,0.7,1,0,1.6c-12.1,10.1-24.2,20.2-36.2,30.2c-0.3,0.3-0.6,0.6-1.2,0.7c0-15,0-29.9,0-45.1
		c-0.5,0.4-0.8,0.6-1.1,0.9c-7.3,6.1-14.5,12.2-21.7,18.3c-0.7,0.6-1,0.5-1.5-0.2C91.5,422.4,89.9,420.5,88.3,418.6z M126.1,405
		c-0.1,0.3-0.1,0.3-0.1,0.4c0,8.7,0,17.4,0,26c0,0.2,0,0.5,0.1,0.6c0.3,0.2,0.4-0.1,0.6-0.3c5-4.2,10-8.4,15.1-12.6
		c0.6-0.5,0.4-0.7,0-1.1c-1.2-0.9-2.3-1.9-3.4-2.9C134.3,411.8,130.2,408.4,126.1,405z M126,386.7c0.2-0.1,0.3-0.1,0.4-0.2
		c5.1-4.3,10.3-8.6,15.4-12.9c0.6-0.5,0.2-0.7-0.1-1c-5-4.1-9.9-8.2-14.9-12.3c-0.2-0.2-0.4-0.5-0.8-0.5
		C126,368.7,126,377.7,126,386.7z"/>
</g>
</svg>
