<?xml version="1.0" encoding="utf-8"?>
<!-- Generator: Adobe Illustrator 19.0.0, SVG Export Plug-In . SVG Version: 6.00 Build 0)  -->
<svg version="1.1" id="objects" xmlns="http://www.w3.org/2000/svg" xmlns:xlink="http://www.w3.org/1999/xlink" x="0px" y="0px"
	 viewBox="0 0 800 800" style="enable-background:new 0 0 800 800;" xml:space="preserve">
<style type="text/css">
	.st0{fill:#4779B3;}
	.st1{fill:#FFFFFF;}
</style>
<circle id="XMLID_2_" class="st0" cx="498.4" cy="361.2" r="81.3"/>
<g id="XMLID_1561_">
	<g id="XMLID_1563_">
		<rect id="XMLID_1565_" x="467.8" y="340.8" class="st1" width="15.6" height="50.5"/>
		<ellipse id="XMLID_1564_" class="st1" cx="475.5" cy="324.9" rx="9.2" ry="9.3"/>
	</g>
	<path id="XMLID_1562_" class="st1" d="M508.4,364.8c0-7.1,3.3-11.3,9.5-11.3c5.8,0,8.5,4.1,8.5,11.3c0,7.3,0,26.5,0,26.5H542
		c0,0,0-18.5,0-32c0-13.5-7.7-20.1-18.4-20.1c-10.7,0-15.2,8.3-15.2,8.3v-6.8h-15v50.5h15C508.4,391.4,508.4,372.6,508.4,364.8z"/>
</g>
</svg>
