<?xml version="1.0" encoding="utf-8"?>
<!-- Generator: Adobe Illustrator 19.0.0, SVG Export Plug-In . SVG Version: 6.00 Build 0)  -->
<svg version="1.1" id="objects" xmlns="http://www.w3.org/2000/svg" xmlns:xlink="http://www.w3.org/1999/xlink" x="0px" y="0px"
	 viewBox="0 0 800 800" style="enable-background:new 0 0 800 800;" xml:space="preserve">
<style type="text/css">
	.st0{fill:#FF4132;}
	.st1{fill:#FFFFFF;}
</style>
<circle class="st0" cx="343.4" cy="161.2" r="81.3"/>
<g>
	<path class="st1" d="M294.6,193.4c0-21.5,0-43,0-64.5c0.6-1.3,1.5-2.2,2.9-2.7c30.7,0,61.3,0,92,0c1.4,0.4,2.3,1.4,2.9,2.7
		c0,21.5,0,43,0,64.5c-0.6,1.3-1.5,2.2-2.9,2.7c-30.7,0-61.3,0-92,0C296,195.7,295.1,194.8,294.6,193.4z M385.2,140.6
		c-0.5,0.1-0.7,0.3-1,0.5c-12.7,9.8-25.4,19.6-38.2,29.3c-2.1,1.6-3.4,1.6-5.5,0c-12.5-9.6-25.1-19.3-37.6-28.9
		c-0.3-0.2-0.5-0.4-0.8-0.6c-0.2-0.1-0.3-0.4-0.6-0.3c-0.3,0.1-0.1,0.4-0.2,0.7c0,0.1,0,0.3,0,0.4c0,15.4,0,30.8,0,46.2
		c0,1.2,0,1.2,1.2,1.2c27.1,0,54.2,0,81.3,0c1.2,0,1.2,0,1.2-1.2c0-15.4,0-30.8,0-46.2C385.2,141.4,385.2,141,385.2,140.6z
		 M304.1,133.4c0.1,0.4,0.4,0.5,0.7,0.7c12.6,9.7,25.2,19.4,37.9,29.1c0.6,0.4,0.9,0.5,1.5,0c12.6-9.7,25.3-19.5,37.9-29.2
		c0.2-0.2,0.6-0.3,0.6-0.7C356.5,133.4,330.3,133.4,304.1,133.4z"/>
</g>
</svg>
