<?xml version="1.0" encoding="utf-8"?>
<!-- Generator: Adobe Illustrator 19.0.0, SVG Export Plug-In . SVG Version: 6.00 Build 0)  -->
<svg version="1.1" id="objects" xmlns="http://www.w3.org/2000/svg" xmlns:xlink="http://www.w3.org/1999/xlink" x="0px" y="0px"
	 viewBox="0 0 800 800" style="enable-background:new 0 0 800 800;" xml:space="preserve">
<style type="text/css">
	.st0{fill:#00AFFA;}
	.st1{fill:#FFFFFF;}
</style>
<circle id="XMLID_2_" class="st0" cx="498.4" cy="361.2" r="81.3"/>
<g>
	<path id="XMLID_1589_" class="st1" d="M456.2,359.2c0,24.4,19.8,44.2,44.2,44.2c2.8,0,5.6-0.3,8.3-0.8c3.9,2.3,8.4,3.7,13.3,3.7
		c14.2,0,25.8-11.5,25.8-25.8c0-5-1.4-9.6-3.9-13.6c0.4-2.5,0.7-5.1,0.7-7.7c0-24.4-19.8-44.2-44.2-44.2c-2.8,0-5.5,0.3-8.1,0.8
		c-3.9-2.4-8.5-3.7-13.4-3.7c-14.2,0-25.8,11.5-25.8,25.8c0,5,1.4,9.6,3.8,13.5C456.4,353.9,456.2,356.6,456.2,359.2z M500.8,327.8
		c14.2,0.8,22.6,7.1,23.4,13c0.4,3.8-2.1,6.8-6.6,6.8c-6.4,0-7.1-8.6-18.2-8.6c-5,0-9.2,2.1-9.2,6.6c0,9.4,35.6,4,35.6,24.7
		c0,12-9.6,19.8-23.9,19.8c-12.6,0-25.2-5.7-25.2-15.5c0-3,2.2-5.7,5.2-5.7c7.4,0,7.3,11,19.1,11c8.3,0,11.1-4.5,11.1-7.7
		c0-11.4-35.8-4.4-35.8-25.8C476.4,334.9,485.9,327,500.8,327.8z"/>
</g>
</svg>
