<?xml version="1.0" encoding="utf-8"?>
<!-- Generator: Adobe Illustrator 19.0.0, SVG Export Plug-In . SVG Version: 6.00 Build 0)  -->
<svg version="1.1" id="objects" xmlns="http://www.w3.org/2000/svg" xmlns:xlink="http://www.w3.org/1999/xlink" x="0px" y="0px"
	 viewBox="0 0 800 800" style="enable-background:new 0 0 800 800;" xml:space="preserve">
<style type="text/css">
	.st0{fill:#00BF6E;}
	.st1{fill:#FFFFFF;}
</style>
<circle class="st0" cx="397.5" cy="368.5" r="81.3"/>
<g>
	<path class="st1" d="M393.9,311.7c2.2,0,4.4,0,6.7,0c0.3,0.1,0.5,0.2,0.8,0.2c9.4,0.7,18,3.6,25.8,8.9
		c12.6,8.5,20.4,20.3,23.1,35.3c0.4,2,0.6,3.9,0.8,5.9c0,2.2,0,4.4,0,6.7c-0.2,0.3-0.2,0.6-0.2,0.9c-0.2,3.4-0.8,6.7-1.8,10
		c-6.1,21.5-24.8,37.1-46.9,39c-10.5,0.9-20.5-1-30-5.8c-0.7-0.4-1.3-0.6-2.1-0.3c-7.7,2.5-15.5,4.9-23.2,7.4
		c-1.8,0.6-3.6,0.9-5.2,1.8c-0.1-0.1-0.5,0.2-0.4-0.2c0.1-0.4,0.3-0.7,0.4-1.1c3-8.8,5.9-17.5,8.9-26.2c0.3-0.9,0.2-1.5-0.2-2.3
		c-4-6.9-6.3-14.4-7-22.4c-0.7-8.5,0.5-16.7,3.9-24.5c7.8-17.7,21.3-28.5,40.3-32.2C389.8,312.1,391.8,311.9,393.9,311.7z
		 M354.9,408.3c5.6-1.8,11-3.5,16.3-5.2c0.7-0.2,1.3-0.2,2,0.2c9.2,5.7,19.2,7.9,30,6.5c11.8-1.5,21.5-7,29-16
		c7.7-9.2,11.1-20,10.2-32c-0.7-9.5-4.1-17.9-10.3-25.1c-9-10.6-20.6-16.2-34.6-16.4c-8.2-0.1-15.9,2-23,6.1
		c-7.2,4.2-12.9,9.9-17,17.2c-5.2,9.2-6.7,19.1-4.9,29.5c1.1,6.5,3.6,12.4,7.4,17.8c0.4,0.5,0.5,1,0.2,1.7c-0.7,2-1.4,4.1-2.1,6.2
		C357.1,401.7,356,404.9,354.9,408.3z"/>
	<path class="st1" d="M380.5,340.9c2.5-0.7,3.6,0.9,4.5,3c1.1,2.8,2.2,5.6,3.5,8.3c0.8,1.6,0.5,3-0.5,4.3c-0.8,1.1-1.7,2.2-2.7,3.2
		c-0.8,0.9-0.9,1.7-0.3,2.7c3.5,5.8,8.1,10.5,14.2,13.7c1.3,0.7,2.6,1.3,4,1.8c1.2,0.5,1.9,0.4,2.7-0.7c1.3-1.5,2.5-3.1,3.8-4.7
		c1.1-1.4,1.7-1.6,3.2-0.9c3.6,1.6,7.1,3.3,10.6,5c0.8,0.4,1.1,1,1.1,1.8c0,6-3,9.5-9.6,11.4c-2.6,0.8-5.2,0.4-7.8-0.4
		c-6-1.9-11.9-3.9-17-7.8c-4.8-3.6-8.9-8-12.4-12.8c-2.3-3.2-4.6-6.4-5.9-10.3c-1.9-6.1-1-11.5,3.5-16.1
		C376.8,341.1,378.5,340.5,380.5,340.9z"/>
</g>
</svg>
