<?xml version="1.0" encoding="utf-8"?>
<!-- Generator: Adobe Illustrator 19.0.0, SVG Export Plug-In . SVG Version: 6.00 Build 0)  -->
<svg version="1.1" id="Layer_1" xmlns="http://www.w3.org/2000/svg" xmlns:xlink="http://www.w3.org/1999/xlink" x="0px" y="0px"
	 viewBox="0 0 612 792" style="enable-background:new 0 0 612 792;" xml:space="preserve">
<g id="XMLID_1_">
	<path id="XMLID_29_" d="M506.9,652.9c-133.3,0-266.6,0-400,0c-0.6-0.3-1.1-0.7-1.7-0.8C85,648.8,70,638,59.4,620.6
		c-4.4-7.3-6.2-15.5-8.4-23.6c0-112,0-224,0-336c0.3-0.7,0.8-1.5,0.9-2.2c4.2-25.6,23-45.7,48.3-52c10.2-2.5,20.5-1.7,30.8-1.7
		c3.9,0,5.5-0.6,5.4-5.1c-0.3-10.6,0.3-21.3-0.2-31.9c-0.6-13.2,4.2-22.5,16.9-27.1c10.3,0,20.7,0,31,0
		c12.5,4.9,17.2,14.2,16.3,27.4c-0.7,10.6,0,21.3-0.2,32c-0.1,3.8,1,4.7,4.8,4.7c68.1-0.1,136.2-0.1,204.3,0c3.7,0,4.8-0.9,4.8-4.7
		c-0.2-12.8-0.1-25.6-0.1-38.5c0-6.6,2.8-11.8,7.7-16.1c2.5-2.2,5.8-3,8.5-4.8c10.3,0,20.7,0,31,0c12.7,4.7,17.5,14,16.9,27.1
		c-0.5,11,0,22-0.2,32.9c0,2.9,0.7,4.1,3.9,4c5.8-0.3,11.6-0.1,17.5-0.1c26,0.1,49.2,15.8,59.2,39.9c2.2,5.2,2.9,10.8,4.7,16.1
		c0,112,0,224,0,336c-0.3,0.7-0.8,1.4-0.9,2.2c-4.7,24.9-19.2,41.6-42.8,50.4C515.3,651.1,511.1,651.8,506.9,652.9z M307.5,355
		c-69.3,0-138.6,0-207.9-0.1c-4.4,0-5.9,0.9-5.9,5.6c0.2,75.1,0.3,150.3-0.1,225.4c-0.1,14.4,9.7,24.4,24.4,24.3
		c125.9-0.3,251.9-0.3,377.8,0c14.7,0,24.5-10,24.5-24.3c-0.4-75.1-0.2-150.3-0.1-225.4c0-4.8-1.5-5.7-5.9-5.6
		C445.4,355.1,376.4,355,307.5,355z"/>
	<path id="XMLID_28_" d="M306.7,460.9c-8.3,0-16.7,0-25,0c-10.3,0-17.3-6.3-17.4-16.4c-0.3-17.5-0.3-35,0-52.5
		c0.2-10.1,6.8-16.2,17-16.2c17.2-0.1,34.3-0.1,51.5,0c10.3,0.1,16.9,6.4,17,16.8c0.2,17.2,0.2,34.3,0,51.5
		c-0.1,10.5-7,16.8-17.5,16.9C323.7,461,315.2,460.9,306.7,460.9z"/>
	<path id="XMLID_27_" d="M307.3,503.8c8.5,0,17-0.1,25.5,0c10.1,0.1,16.8,6.3,16.9,16.3c0.3,17.5,0.3,35,0,52.5
		c-0.2,10-7.1,16.3-17,16.3c-17.2,0-34.3,0.1-51.5,0c-9.9,0-16.8-6.5-16.9-16.5c-0.2-17.5-0.3-35,0-52.5c0.2-10.1,6.8-16.1,17-16.2
		C289.9,503.7,298.6,503.8,307.3,503.8z"/>
	<path id="XMLID_26_" d="M413.8,418.1c0-8.7-0.1-17.3,0-26c0.1-9.9,6.3-16.3,16.2-16.3c17.6-0.1,35.3-0.1,52.9,0
		c9.3,0.1,15.9,6.8,16,16.2c0.1,17.5,0.1,35,0,52.4c0,9.6-6.8,16.4-16.3,16.5c-17.5,0.1-35,0.1-52.4,0c-9.6,0-16.2-6.6-16.4-16.3
		C413.7,435.8,413.8,427,413.8,418.1z"/>
	<path id="XMLID_25_" d="M200.2,418.5c0,8.7,0.1,17.3,0,26c-0.1,10-6.7,16.4-16.7,16.5c-17.1,0.1-34.3,0-51.4,0
		c-10.2,0-16.9-6.7-17-16.8c-0.1-17.1,0-34.3,0-51.4c0-10.2,6.3-16.8,16.3-16.8c17.5-0.1,35-0.1,52.4,0c9.9,0.1,16.1,6.4,16.4,16.2
		c0,0.3,0,0.7,0,1C200.2,401.5,200.2,410,200.2,418.5z"/>
	<path id="XMLID_24_" d="M158,503.8c8.5,0,17-0.1,25.5,0c10.2,0.1,16.6,6.3,16.7,16.4c0.1,17.5,0.1,35,0,52.4
		c-0.1,9.7-6.7,16.2-16.4,16.3c-17.5,0.1-35,0.1-52.4,0c-9.5,0-16.2-6.9-16.3-16.5c-0.1-17.5-0.1-35,0-52.4c0-9.4,6.6-16,16-16.1
		C140,503.7,149,503.8,158,503.8z"/>
</g>
</svg>
