<?xml version="1.0" encoding="utf-8"?>
<!-- Generator: Adobe Illustrator 19.0.0, SVG Export Plug-In . SVG Version: 6.00 Build 0)  -->
<svg version="1.1" id="Layer_1" xmlns="http://www.w3.org/2000/svg" xmlns:xlink="http://www.w3.org/1999/xlink" x="0px" y="0px"
	 viewBox="0 0 612 792" style="enable-background:new 0 0 612 792;" xml:space="preserve">
<g>
	<path d="M227.2,587.7c0-82.8,0-165.7-0.1-248.5c0-7.2,2.6-12.3,8.3-16.5c18.9-13.9,37.6-28.2,56.4-42.1c2.2-1.6,2.9-3.2,2.9-5.9
		c-0.1-18.6,0.2-37.2-0.2-55.8c-0.1-7,1.9-12.1,8.4-15.1c19.5,0,39,0,58.5,0c6.2,3,9,7.8,8.2,14.7c-1.7,14.7-8.4,26.2-20.7,34.4
		c-8.7,5.7-18.3,7.6-28.6,7.1c-2.4-0.1-3.3,0.5-3.2,3.1c0.2,3.6,0.2,7.3,0,10.9c-0.2,3.2,0.8,5.2,3.4,7.1
		c18.5,13.6,36.7,27.6,55.3,41.2c6.2,4.6,9,10,8.9,17.7c-0.2,82.6-0.1,165.2-0.1,247.8c-7.5,0-15,0-22.5,0c0-14.7,0-29.5,0-44.2
		c0-4-0.3-8-1.2-11.9c-6-28.3-32-47.7-60-44.9c-29.5,2.9-51.3,26.8-51.4,56.5c-0.1,14.9,0,29.7,0,44.6
		C242.2,587.7,234.7,587.7,227.2,587.7z M306,325.2c-18.5,0-33.6,15.1-33.7,33.6c-0.1,18.6,15.1,33.9,33.8,33.9
		c18.5,0,33.6-15.1,33.7-33.6C339.8,340.5,324.6,325.2,306,325.2z M272.2,436.1c0-3.7,0.1-7.5,0-11.2c-0.1-6.7-5-11.5-11.3-11.4
		c-6.2,0.1-11,4.9-11.1,11.3c-0.1,7.4-0.1,14.7,0,22.1c0.1,6.6,5,11.5,11.3,11.4c6.2-0.1,10.9-4.8,11.1-11.3
		C272.3,443.4,272.2,439.7,272.2,436.1z M317.2,436.1c0-3.9,0.1-7.8,0-11.6c-0.2-6.4-5.1-11.1-11.3-11.1c-6.2,0-11,4.8-11.1,11.3
		c-0.1,7.4-0.1,14.7,0,22.1c0.1,6.6,5,11.5,11.3,11.5c6.3,0,11-4.9,11.2-11.6C317.3,443.1,317.2,439.6,317.2,436.1z M339.7,435.5
		c0,3.7-0.1,7.5,0,11.2c0.1,6.7,5,11.5,11.3,11.5c6.2,0,11-4.8,11.1-11.2c0.1-7.5,0.1-15,0-22.5c-0.1-6.4-5.1-11.2-11.3-11.1
		c-6.2,0-11,4.8-11.2,11.2C339.6,428.3,339.7,431.9,339.7,435.5z"/>
	<path d="M114.7,407.7c28.7,0,57.4,0,86.1-0.1c3.1,0,4,0.7,3.9,3.8c-0.2,15.1-0.2,30.2,0,45.3c0,2.9-0.8,3.5-3.5,3.5
		c-28.8-0.1-57.7-0.1-86.5-0.1C114.7,442.7,114.7,425.2,114.7,407.7z"/>
	<path d="M497.2,460.2c-28.7,0-57.4,0-86.1,0.1c-3.1,0-4-0.7-3.9-3.8c0.2-15.1,0.2-30.2,0-45.3c0-2.9,0.8-3.5,3.5-3.5
		c28.8,0.1,57.7,0.1,86.5,0.1C497.2,425.2,497.2,442.7,497.2,460.2z"/>
	<path d="M171,587.7c0-33.7,0-67.4-0.1-101.1c0-3,0.6-4,3.8-3.9c8.9,0.2,17.7,0.2,26.6,0c2.9-0.1,3.5,0.8,3.5,3.6
		c-0.1,33.8-0.1,67.7-0.1,101.5C193.5,587.7,182.2,587.7,171,587.7z"/>
	<path d="M407.2,587.7c0-33.7,0-67.4-0.1-101.1c0-3,0.6-4,3.8-3.9c8.9,0.2,17.7,0.2,26.6,0c2.9-0.1,3.5,0.8,3.5,3.6
		c-0.1,33.8-0.1,67.7-0.1,101.5C429.7,587.7,418.5,587.7,407.2,587.7z"/>
	<path d="M114.7,482.7c10.1,0,20.2,0.1,30.3-0.1c2.9-0.1,3.5,0.8,3.5,3.5c-0.1,33.8-0.1,67.7-0.1,101.5c-8.5,0-17,0-25.5,0
		c-3.7-1.8-6.5-4.5-8.2-8.2C114.7,547.2,114.7,515,114.7,482.7z"/>
	<path d="M463.5,587.7c0-33.7,0-67.4-0.1-101.1c0-3.1,0.7-4,3.9-3.9c10,0.2,20,0.1,30,0.1c0,32.2,0,64.5,0,96.7
		c-1.8,3.7-4.5,6.5-8.2,8.2C480.5,587.7,472,587.7,463.5,587.7z"/>
	<path d="M114.7,359.7c2.9-6.3,7.8-8.4,14.7-8.4c23.9,0.3,47.7,0.2,71.6,0c2.9,0,3.8,0.7,3.7,3.7c-0.2,8.6-0.2,17.2,0,25.9
		c0.1,3.3-0.7,4.4-4.2,4.3c-28.6-0.2-57.2-0.1-85.9-0.1C114.7,376.7,114.7,368.2,114.7,359.7z"/>
	<path d="M497.2,385.2c-28.6,0-57.2-0.1-85.9,0.1c-3.6,0-4.3-1.1-4.2-4.4c0.2-8.9,0.2-17.7,0-26.6c0-2.3,0.7-2.9,2.9-2.9
		c25.1,0.1,50.2,0.1,75.4,0c5.9,0,9.3,3.5,11.7,8.3C497.2,368.2,497.2,376.7,497.2,385.2z"/>
	<path d="M272.2,587.7c0-15.1-0.2-30.2,0.1-45.3c0.3-13.8,7-23.8,19.3-30.2c2.7-1.4,3.2-0.7,3.2,2.1c-0.1,24.5-0.1,48.9-0.1,73.4
		C287.2,587.7,279.7,587.7,272.2,587.7z"/>
	<path d="M317.2,587.7c0-24.3,0-48.7-0.1-73c0-3.1,0.5-4,3.6-2.3c12,6.5,18.6,16.4,18.9,30.1c0.3,15.1,0.1,30.2,0.1,45.3
		C332.2,587.7,324.7,587.7,317.2,587.7z"/>
	<path d="M317.2,358.9c0,6.1-5,11.2-11.1,11.3c-6.2,0.1-11.4-5.2-11.4-11.4c0.1-6.1,5.2-11.1,11.3-11.1
		C312.1,347.8,317.2,352.9,317.2,358.9z"/>
</g>
</svg>
