<?xml version="1.0" encoding="utf-8"?>
<!-- Generator: Adobe Illustrator 19.0.0, SVG Export Plug-In . SVG Version: 6.00 Build 0)  -->
<svg version="1.1" id="Layer_1" xmlns="http://www.w3.org/2000/svg" xmlns:xlink="http://www.w3.org/1999/xlink" x="0px" y="0px"
	 viewBox="0 0 612 792" style="enable-background:new 0 0 612 792;" xml:space="preserve">
<g>
	<path d="M23.8,524.6c0-1.1,0-2.1,0-3.2c0.2-1.2,0.5-2.3,0.6-3.5c1.3-26.6,11.8-49.2,30.4-68c69.7-70.2,139.5-140.3,209.3-210.5
		c10.9-10.9,23.7-18.4,38.8-21.9c3-0.7,6.1-0.5,8.9-1.8c5.1,0,10.1,0,15.2,0c1.2,0.8,2.5,0.7,3.9,0.9c31.7,4.1,59.2,30.8,64.2,62.2
		c4.3,27.1-3.4,50.3-22.8,69.6C315.1,405.7,257.9,463,200.7,520.2c-1.5,1.5-3,3-4.7,4.4c-20.9,18.1-52.9,16-71.3-4.6
		c-18.4-20.6-17.5-50.8,2.3-70.8c27.5-27.8,55.2-55.3,82.8-82.9c1.2-1.2,2.5-2.4,4-3.3c9.7-6.4,23.1-1.2,25.7,10.1
		c1.6,7-0.8,12.7-5.9,17.7c-26.8,26.7-53.6,53.5-80.3,80.3c-1.5,1.5-3,3-4.3,4.7c-7.5,10.1-1.7,24.5,10.6,26.7
		c7,1.3,12.3-1.7,17.1-6.5c57-57.1,114.1-114.1,171.1-171.1c1.5-1.5,3-3,4.4-4.7c9.2-11.2,12.1-24,8.6-37.9
		c-4-15.7-14.1-26.2-29.7-30.5c-16-4.4-30.4-0.5-42.2,11.3c-70,70.3-140,140.6-209.9,211c-16,16.1-22.7,35.6-20.1,58.3
		c4.5,38.5,44,66.2,81.9,57.5c14.1-3.2,25.8-10.2,35.9-20.4c66.9-67.3,134-134.5,200.7-202.1c13-13.2,30.3-5.9,31.7,8.2
		c0,0.1,0.2,0.2,0.3,0.3c0,0.8,0,1.6,0,2.4c-1.2,4.7-3.1,8.8-6.7,12.4c-67.7,68-135.4,136.1-203.1,204.1
		c-11.5,11.6-25,20.1-40.6,25.4c-7.9,2.7-16,3.6-24.1,5.4c-5.6,0-11.2,0-16.8,0c-9.3-1.7-18.6-3-27.4-6.5
		c-32.4-12.9-53.5-36-63.1-69.6C25.3,541.2,24.9,532.9,23.8,524.6z"/>
</g>
</svg>
