<?xml version="1.0" encoding="utf-8"?>
<!-- Generator: Adobe Illustrator 19.0.0, SVG Export Plug-In . SVG Version: 6.00 Build 0)  -->
<svg version="1.1" id="Layer_1" xmlns="http://www.w3.org/2000/svg" xmlns:xlink="http://www.w3.org/1999/xlink" x="0px" y="0px"
	 viewBox="0 0 612 792" style="enable-background:new 0 0 612 792;" xml:space="preserve">
<g>
	<path d="M318,328.5h-49.8l-4.9-14.5c-3.1-9.2-11.6-15.3-21.2-15.3H194c-9.6,0-18.2,6.1-21.2,15.3l-4.9,14.5H156v-12.3
		c0-9.6-7.8-17.4-17.4-17.4h-10c-9.6,0-17.4,7.8-17.4,17.4v13.3c-11.8,3.1-20.4,13.7-20.4,26.4v129.3c0,15.1,12.3,27.4,27.4,27.4
		H318c15.1,0,27.4-12.3,27.4-27.4V356C345.4,340.9,333.1,328.5,318,328.5z M126,316.2c0-1.4,1.2-2.5,2.5-2.5h10
		c1.4,0,2.5,1.2,2.5,2.5v12.3H126V316.2z M330.6,485.3c0,6.9-5.5,12.3-12.3,12.3h-200c-6.9,0-12.3-5.5-12.3-12.3V356
		c0-6.9,5.5-12.3,12.3-12.3h55.2c3.1,0,6.1-2,7.1-5.1l6.5-19.6c1-3.1,3.9-5.1,7.1-5.1h48.2c3.1,0,6.1,2,7.1,5.1l6.5,19.6
		c1,3.1,3.9,5.1,7.1,5.1H318c6.9,0,12.3,5.5,12.3,12.3v129.3H330.6z"/>
	<circle cx="307.6" cy="366" r="7.4"/>
	<path d="M143.5,358.5h-14.9c-4.1,0-7.4,3.3-7.4,7.4s3.3,7.4,7.4,7.4h14.9c4.1,0,7.4-3.3,7.4-7.4S147.6,358.5,143.5,358.5z"/>
	<g>
		<path d="M218.1,482.9c-37,0-67.2-30.2-67.2-67.2s30.2-67.2,67.2-67.2s67.2,30.2,67.2,67.2S255.1,482.9,218.1,482.9z M218.1,363.4
			c-28.8,0-52.3,23.5-52.3,52.3c0,28.8,23.5,52.3,52.3,52.3s52.3-23.5,52.3-52.3C270.4,386.9,246.9,363.4,218.1,363.4z"/>
	</g>
	<g>
		<path d="M218.1,452.9c-20.6,0-37.2-16.7-37.2-37.2c0-20.6,16.7-37.2,37.2-37.2s37.2,16.7,37.2,37.2
			C255.3,436.3,238.7,452.9,218.1,452.9z M218.1,393.4c-12.3,0-22.3,10-22.3,22.3s10,22.3,22.3,22.3s22.3-10,22.3-22.3
			S230.5,393.4,218.1,393.4z"/>
	</g>
</g>
</svg>
