<?xml version="1.0" encoding="utf-8"?>
<!-- Generator: Adobe Illustrator 19.0.0, SVG Export Plug-In . SVG Version: 6.00 Build 0)  -->
<svg version="1.1" id="Layer_1" xmlns="http://www.w3.org/2000/svg" xmlns:xlink="http://www.w3.org/1999/xlink" x="0px" y="0px"
	 viewBox="0 0 612 792" style="enable-background:new 0 0 612 792;" xml:space="preserve">
<g>
	<path d="M376.6,510.2c0,7,0,14,0,21c-0.7,5.3-1.1,10.6-2,15.8c-5.6,33.5-20.3,62.4-44.2,86.5c-24,24.3-52.7,39.7-86.4,45.6
		c-5.9,1-11.8,1.3-17.7,2.3c-7,0-14,0-21,0c-5.3-0.7-10.6-1.1-15.9-2c-33.5-5.6-62.4-20.3-86.5-44.2c-24.3-24-39.7-52.7-45.6-86.5
		c-1-5.9-1.3-11.8-2.3-17.7c0-7,0-14,0-21c0.7-5.3,1.1-10.6,2-15.8c5.6-33.5,20.3-62.4,44.2-86.5c24-24.3,52.7-39.7,86.4-45.6
		c5.9-1,11.8-1.3,17.7-2.3c7,0,14,0,21,0c5.3,0.7,10.6,1.1,15.9,2c33.5,5.6,62.4,20.3,86.5,44.2c24.3,24,39.7,52.7,45.6,86.5
		C375.3,498.4,375.6,504.4,376.6,510.2z M215.5,664.4c78.5,0.3,143.4-64.3,143.9-143.2c0.5-78.5-64.4-143.8-143.4-144.1
		c-78.5-0.3-143.4,64.3-143.9,143.2C71.6,598.9,136.5,664.1,215.5,664.4z"/>
	<path d="M137,512.2c2.5-0.2,4.5,1.2,6.4,2.8c16.8,13.5,33.7,26.9,50.4,40.4c2,1.6,3,1.7,4.8-0.4c29.2-33.1,58.6-66,87.9-99
		c2.1-2.4,4.1-4.7,7.9-4.8c3.9-0.1,6.8,1.4,8.3,4.7c1.6,3.5,1.2,7-1.6,10.1c-7.6,8.5-15.2,17.1-22.8,25.7
		c-24.2,27.2-48.4,54.4-72.6,81.6c-2,2.2-3.9,4.6-7.3,4.8c-2.7,0.2-5-0.4-7.2-2.1c-19.5-15.7-39.1-31.3-58.7-47
		c-2.6-2.1-4.9-4.3-4.8-8.2C128.2,515.5,131.5,512.1,137,512.2z"/>
</g>
</svg>
