<?xml version="1.0" encoding="utf-8"?>
<!-- Generator: Adobe Illustrator 19.0.0, SVG Export Plug-In . SVG Version: 6.00 Build 0)  -->
<svg version="1.1" id="Layer_1" xmlns="http://www.w3.org/2000/svg" xmlns:xlink="http://www.w3.org/1999/xlink" x="0px" y="0px"
	 viewBox="0 0 612 792" style="enable-background:new 0 0 612 792;" xml:space="preserve">
<g>
	<path d="M314.4,724.8c-65.4,0-130.9,0-196.3,0c-3.5-1.2-7.2-1.7-10.4-3.6c-13.2-7.7-18.3-19.6-18.3-34.3c0-80.4,0-160.8-0.1-241.2
		c0-3,0.6-4,3.9-4c82.1,0.1,164.3,0.1,246.4,0c3,0,3.7,0.8,3.7,3.7c-0.1,80.5-0.1,161.1-0.1,241.6c0,8.4-1.8,16.2-6.5,23.3
		C331.4,718.6,323.7,722.9,314.4,724.8z M267.4,574.5c0,30.6,0,61.2,0,91.8c0,6.8,2.9,10.7,8,10.6c5.1,0,8-3.9,8-10.7
		c0-0.1,0-0.3,0-0.4c0-60.9,0-121.9,0-182.8c0-7.1-2.9-11-8.1-11c-5.2,0-7.9,3.8-7.9,11.1C267.4,513.6,267.4,544.1,267.4,574.5z
		 M165.3,574.4c0-30.5,0-60.9,0-91.4c0-7.2-2.8-11-8-11c-5.2,0-8,3.9-8,11.1c0,60.9,0,121.9,0,182.8c0,1.7,0.1,3.5,0.5,5.1
		c0.8,3.4,4.1,5.9,7.5,5.9c3.6,0,7-2.8,7.6-6.4c0.3-1.8,0.3-3.7,0.3-5.5C165.3,634.9,165.3,604.7,165.3,574.4z M208.3,574.5
		c0,30.2,0,60.4,0,90.6c0,1.7,0,3.5,0.3,5.1c0.6,3.7,3.7,6.4,7.3,6.6c3.5,0.2,7-2.3,7.9-6c0.4-1.8,0.5-3.7,0.5-5.5
		c0-60.7,0-121.3,0-182c0-0.9,0-1.9,0-2.8c-0.4-5.2-3.7-8.7-8.1-8.6c-4.5,0-7.6,3.4-7.9,8.7c-0.1,1.2,0,2.4,0,3.6
		C208.3,514.4,208.3,544.5,208.3,574.5z"/>
	<path d="M60.8,404.4c1.3-5,2.8-9.8,6.9-13.4c4.7-4.1,10.2-5.2,16.2-5.2c27.9,0.1,55.8,0,83.8,0c60.2,0,120.4,0,180.6,0
		c7.8,0,14.6,1.8,19.5,8.5c1.9,2.6,2.6,5.7,3.8,8.6c0,1.9,0,3.7,0,5.6c-1.3,3.7-2.4,7.5-5.1,10.6c-4.7,5.2-10.7,6.9-17.5,6.9
		c-46.1,0-92.2,0-138.2,0c-41.3,0-82.6,0-123.9,0c-16.4,0-21.3-3.6-26-19C60.8,406,60.8,405.2,60.8,404.4z"/>
	<path d="M265.1,317.8c6.3,1.5,12.5,3.1,17.8,7.1c10.4,7.6,15.1,18.1,15.4,30.7c0.2,6.3-0.1,12.7,0.1,19.1c0.1,2.5-0.8,3.3-3.2,3.1
		c-4.1-0.3-9.2,1.6-11.9-0.7c-2.6-2.2-0.7-7.5-0.9-11.4c-0.2-4.5,0.2-9-0.4-13.5c-1.3-9.3-7.4-16-16.6-17.9
		c-1.4-0.3-2.9-0.6-4.3-0.6c-29.9,0-59.8-0.2-89.7,0.1c-12.5,0.1-20.5,8.7-20.9,21.3c-0.2,4.9,0,9.8,0,14.7c0,7.9,0,7.9-7.9,7.9
		c-8.1,0-8.2,0-8.1-8.1c0.1-8.6-0.9-17.2,1.8-25.6c4.6-14.5,14.7-22.7,29.4-25.6c0.6-0.1,1.2-0.4,1.8-0.6
		C199.9,317.8,232.5,317.8,265.1,317.8z"/>
</g>
</svg>
