<?xml version="1.0" encoding="utf-8"?>
<!-- Generator: Adobe Illustrator 19.0.0, SVG Export Plug-In . SVG Version: 6.00 Build 0)  -->
<svg version="1.1" id="Layer_1" xmlns="http://www.w3.org/2000/svg" xmlns:xlink="http://www.w3.org/1999/xlink" x="0px" y="0px"
	 viewBox="0 0 612 792" style="enable-background:new 0 0 612 792;" xml:space="preserve">
<g>
	<path d="M416.8,383.4c-1,3.7-1.9,7.6-3.2,11.2c-2.3,6.4-6.3,11.7-11,16.4c-58.5,58.5-117,117-175.5,175.5c-2.3,2.3-4.8,3.8-8,4.7
		c-26.9,7.4-53.7,14.9-80.6,22.3c-10.3,2.8-16.6-3.4-13.8-13.6c7.4-26.9,14.9-53.7,22.3-80.6c0.9-3.1,2.3-5.7,4.6-8
		c58.6-58.6,117.2-117.2,175.8-175.8c19-19,46.3-18.8,65.4,0c3.3,3.3,6.6,6.6,10,10c7.1,7.1,11.8,15.5,13.3,25.5
		c0.1,0.5,0.4,0.9,0.6,1.4C416.8,376.1,416.8,379.8,416.8,383.4z M364.5,420.4c-0.8-0.9-1.5-1.6-2.2-2.4
		c-13.9-13.9-27.9-27.8-41.8-41.9c-2.1-2.2-3.2-2.3-5.5,0c-46.8,46.9-93.7,93.8-140.6,140.6c-2,2-2.2,3.1,0,5.2
		c13.9,13.6,27.6,27.4,41.2,41.3c2.6,2.7,3.9,2.8,6.6,0.1c46.4-46.6,93-93.1,139.5-139.6c0.6-0.6,1.3-1.3,1.9-2
		C364,421.3,364.2,420.9,364.5,420.4z M396.7,378.1c0-5.9-1.7-11.4-5.8-15.8c-4.4-4.8-8.9-9.5-13.7-13.9c-7.1-6.5-15.4-8.4-24.6-5.6
		c-8.6,2.5-13.5,9.9-19.7,15.6c-1.2,1.1-0.2,1.8,0.5,2.5c14.6,14.7,29.3,29.3,43.9,44c1.2,1.2,1.9,1.3,3.1,0
		c3.3-3.5,6.8-6.8,10.1-10.4C394.8,389.9,396.7,384.4,396.7,378.1z M148.2,590.2c17.6-4.9,34.5-9.6,51.1-14.2
		c-12.3-12.4-24.5-24.7-36.9-37.1C157.7,555.7,153.1,572.6,148.2,590.2z"/>
	<path d="M15.8,404.6c1.6-6.4,3-12.9,6.4-18.7c10-16.5,24.6-25.3,43.9-25.4c29-0.2,58-0.1,86.9,0c6.8,0,11.3,4.1,11.3,9.9
		c0.1,5.8-4.7,10-11.6,10c-28.5,0-56.9,0-85.4,0c-15.5,0-26.7,8.4-30.7,22.9c-0.8,3.1-0.9,6.2-1,9.3c0,85.2,0,170.5,0,255.7
		c0,16,8,27.1,22.2,31.2c3.3,0.9,6.7,1.2,10.1,1.2c91.9,0,183.8,0,275.7,0c19.5,0,32.2-12.8,32.3-32.5c0-28.3,0-56.6,0-85
		c0-5.7,3-9.9,7.6-10.9c6.1-1.4,12,3,12.1,9.4c0.2,8,0.1,15.9,0.1,23.9c0,22.6,0.3,45.2-0.2,67.7c-0.5,25-21.8,46-46.8,47
		c-1.8,0.1-3.7,0.1-5.5,0.1c-91.8,0-183.5,0-275.3,0c-20.1,0-35.4-8.2-45.9-25.4c-3.5-5.8-4.9-12.3-6.5-18.7
		C15.8,585.8,15.8,495.2,15.8,404.6z"/>
</g>
</svg>
