<?xml version="1.0" encoding="utf-8"?>
<!-- Generator: Adobe Illustrator 19.0.0, SVG Export Plug-In . SVG Version: 6.00 Build 0)  -->
<svg version="1.1" id="Capa_1" xmlns="http://www.w3.org/2000/svg" xmlns:xlink="http://www.w3.org/1999/xlink" x="0px" y="0px"
	 viewBox="-171 262.2 268.8 268.8" style="enable-background:new -171 262.2 268.8 268.8;" xml:space="preserve">
<g>
	<path d="M-167.3,405.4l80,80c2.4,2.4,5.6,3.7,8.8,3.7s6.4-1.2,8.8-3.7c4.9-4.9,4.9-12.8,0-17.7l-58.7-58.7l213.7,0
		c6.9,0,12.5-5.6,12.5-12.5c0-6.9-5.6-12.5-12.5-12.5l-213.7,0l58.7-58.7c4.9-4.9,4.9-12.8,0-17.7c-4.9-4.9-12.8-4.9-17.7,0l-80,80
		C-172.2,392.6-172.2,400.5-167.3,405.4z"/>
</g>
</svg>
