<?xml version="1.0" encoding="utf-8"?>
<!-- Generator: Adobe Illustrator 19.0.0, SVG Export Plug-In . SVG Version: 6.00 Build 0)  -->
<svg version="1.1" id="Layer_1" xmlns="http://www.w3.org/2000/svg" xmlns:xlink="http://www.w3.org/1999/xlink" x="0px" y="0px"
	 viewBox="0 0 612 792" style="enable-background:new 0 0 612 792;" xml:space="preserve">
<g>
	<path d="M357,355.6h-25.4l-2.5-7.4c-1.6-4.7-5.9-7.8-10.8-7.8h-24.6c-4.9,0-9.3,3.1-10.8,7.8l-2.5,7.4h-6.1v-6.3
		c0-4.9-4-8.9-8.9-8.9h-5.1c-4.9,0-8.9,4-8.9,8.9v6.8c-6,1.6-10.4,7-10.4,13.5v66c0,7.7,6.3,14,14,14H357c7.7,0,14-6.3,14-14v-66
		C371,361.9,364.7,355.6,357,355.6z M259,349.3c0-0.7,0.6-1.3,1.3-1.3h5.1c0.7,0,1.3,0.6,1.3,1.3v6.3H259V349.3z M363.4,435.6
		c0,3.5-2.8,6.3-6.3,6.3H255c-3.5,0-6.3-2.8-6.3-6.3v-66c0-3.5,2.8-6.3,6.3-6.3h28.2c1.6,0,3.1-1,3.6-2.6l3.3-10
		c0.5-1.6,2-2.6,3.6-2.6h24.6c1.6,0,3.1,1,3.6,2.6l3.3,10c0.5,1.6,2,2.6,3.6,2.6H357c3.5,0,6.3,2.8,6.3,6.3V435.6z"/>
	<circle cx="351.7" cy="374.7" r="3.8"/>
	<path d="M267.9,370.9h-7.6c-2.1,0-3.8,1.7-3.8,3.8s1.7,3.8,3.8,3.8h7.6c2.1,0,3.8-1.7,3.8-3.8S270,370.9,267.9,370.9z"/>
	<g>
		<path d="M306,434.4c-18.9,0-34.3-15.4-34.3-34.3s15.4-34.3,34.3-34.3s34.3,15.4,34.3,34.3S324.9,434.4,306,434.4z M306,373.4
			c-14.7,0-26.7,12-26.7,26.7s12,26.7,26.7,26.7s26.7-12,26.7-26.7S320.7,373.4,306,373.4z"/>
	</g>
	<g>
		<path d="M306,419.1c-10.5,0-19-8.5-19-19s8.5-19,19-19c10.5,0,19,8.5,19,19C325,410.6,316.5,419.1,306,419.1z M306,388.7
			c-6.3,0-11.4,5.1-11.4,11.4s5.1,11.4,11.4,11.4s11.4-5.1,11.4-11.4S312.3,388.7,306,388.7z"/>
	</g>
</g>
<path d="M308.5,235C219.3,235,147,307.3,147,396.5S219.3,558,308.5,558S470,485.7,470,396.5S397.7,235,308.5,235z M308.5,541
	C228.7,541,164,476.3,164,396.5S228.7,252,308.5,252S453,316.7,453,396.5S388.3,541,308.5,541z"/>
</svg>
