<?xml version="1.0" encoding="utf-8"?>
<!-- Generator: Adobe Illustrator 19.0.0, SVG Export Plug-In . SVG Version: 6.00 Build 0)  -->
<svg version="1.1" id="Layer_1" xmlns="http://www.w3.org/2000/svg" xmlns:xlink="http://www.w3.org/1999/xlink" x="0px" y="0px"
	 viewBox="0 0 612 792" style="enable-background:new 0 0 612 792;" xml:space="preserve">
<g>
	<path d="M424.5,392.3H180.1c-7.4,0-13.5-6.1-13.5-13.5v0c0-7.4,6.1-13.5,13.5-13.5h244.4c7.4,0,13.5,6.1,13.5,13.5v0
		C438,386.2,431.9,392.3,424.5,392.3z"/>
	<path d="M424.5,465.7H180.1c-7.4,0-13.5-6.1-13.5-13.5v0c0-7.4,6.1-13.5,13.5-13.5h244.4c7.4,0,13.5,6.1,13.5,13.5v0
		C438,459.6,431.9,465.7,424.5,465.7z"/>
	<path d="M424.5,535.4H180.1c-7.4,0-13.5-6.1-13.5-13.5l0,0c0-7.4,6.1-13.5,13.5-13.5h244.4c7.4,0,13.5,6.1,13.5,13.5l0,0
		C438,529.3,431.9,535.4,424.5,535.4z"/>
</g>
</svg>
