<?xml version="1.0" encoding="utf-8"?>
<!-- Generator: Adobe Illustrator 19.0.0, SVG Export Plug-In . SVG Version: 6.00 Build 0)  -->
<svg version="1.1" id="Layer_1" xmlns="http://www.w3.org/2000/svg" xmlns:xlink="http://www.w3.org/1999/xlink" x="0px" y="0px"
	 viewBox="0 0 595.3 841.9" style="enable-background:new 0 0 595.3 841.9;" xml:space="preserve">
<style type="text/css">
	.st0{fill-rule:evenodd;clip-rule:evenodd;}
</style>
<path class="st0" d="M41,414.9c28.1-37.6,61.2-69.9,99.8-96.4c40.7-28,85.2-46.8,134.8-51.5c31.7-3,62.8,0.8,93.2,10.1
	c6,1.8,6.1,2.4,1.7,6.9c-9.9,9.9-19.9,19.7-29.6,29.8c-2.9,3-5.4,3.2-9.2,2c-34-10.8-66.5-7.4-95.7,13.6
	c-34.5,24.8-48.8,59.1-44.2,101.3c0.8,7.3,2.7,14.4,5.2,21.3c1.1,3.2,0.5,5.2-1.8,7.5c-17,16.9-34,33.8-50.9,50.9
	c-2.5,2.5-4.4,2.6-7.3,0.6c-13.7-9.8-26.8-20.3-39.4-31.6c-21-18.9-39.8-39.7-56.8-62.3C41,416.2,41,415.6,41,414.9z M157.8,471.5
	c-7.3-18.5-10.6-36.5-10.8-55.1c-0.2-18.6,3.6-36.8,9.4-54.6c-1.3,0.1-2.1,0.5-2.7,0.9c-19.7,14.7-37.4,31.5-54.2,49.4
	c-2.7,2.8-2.3,5,0.3,7.7c11.5,12.1,23.1,23.9,35.9,34.6C142.5,460.2,149.2,466,157.8,471.5z"/>
<path class="st0" d="M553,416.9c-30.2,40.1-66,74.5-108.2,101.9c-35.9,23.3-74.8,39.3-117.5,45c-34.7,4.6-68.7,1.1-102.2-8.9
	c-3.7-1.1-3.7-2.4-1.1-4.9c10.7-10.5,21.3-21.1,31.8-31.8c3-3.1,5.9-2,9.1-1.1c25.7,7.9,51.3,7.2,75.5-4.4
	c39.1-18.7,60.3-50,62.5-93.7c0.6-12.6-1.2-24.9-5.2-36.9c-1-3.1-0.6-5.3,1.8-7.6c17.4-17.2,34.8-34.5,51.9-52
	c3.5-3.6,5.7-1.4,8.5,0.5c35.8,25.9,66.8,56.5,93.2,91.9C553,415.6,553,416.2,553,416.9z M436.4,471.3c1.5-0.9,2.3-1.2,2.9-1.7
	c20.1-14.7,38-31.8,55.1-49.9c3.2-3.4,1.9-5.7-0.7-8.4c-12.6-13.1-25.4-26-39.5-37.5c-5.5-4.5-10.7-9.3-17.8-13.2
	C450.4,397.7,450.3,434.1,436.4,471.3z"/>
<path class="st0" d="M142.8,594.2c-11.4,0-18-5.1-21.6-13.4c-3.6-8.6-1.8-16.8,4.8-23.5c9.6-9.9,19.5-19.6,29.3-29.4
	c76.1-76.1,152.3-152.1,228.4-228.2c14.5-14.5,28.9-29.1,43.4-43.6c6.3-6.3,13.9-8.5,22.5-5.8c8.2,2.6,13.4,8.5,15,17.1
	c1.3,7.3-0.9,13.5-6,18.7c-7.2,7.4-14.3,14.9-21.6,22.2c-54,54.1-107.8,108.5-162.2,162.2c-39,38.5-77.5,77.5-116.5,116
	C152,592.7,148.4,594.3,142.8,594.2z"/>
<path class="st0" d="M232.7,412.4c0.3-26.4,20.4-51.5,47.1-58.7c5.8-1.6,11.7-2.5,17.8-2.1c1.1,0.1,2.6-0.4,3.2,0.8
	c0.7,1.3-0.7,2.1-1.5,2.9c-21,21-41.9,42-62.9,62.9c-0.8,0.8-1.5,2.1-2.9,1.4c-1-0.5-0.7-1.7-0.8-2.7
	C232.7,415.4,232.7,413.9,232.7,412.4z"/>
<path class="st0" d="M301.4,480.1c-1.2,0-2.3,0.1-3.5,0c-1.8-0.1-2.5-0.9-1.2-2.5c0.5-0.6,1.1-1.2,1.7-1.8
	c12.2-12.2,24.5-24.4,36.7-36.8c2.3-2.3,4.5-3.5,7.9-2.8c2.9,0.6,6,0.4,9,0.4c5.9,0,6.3,0.4,3.6,5.8c-8.6,17.9-22.3,30-41.5,35.5
	C310,479.2,305.8,480.2,301.4,480.1z"/>
</svg>
