<?xml version="1.0" encoding="utf-8"?>
<!-- Generator: Adobe Illustrator 19.0.0, SVG Export Plug-In . SVG Version: 6.00 Build 0)  -->
<svg version="1.1" id="objects" xmlns="http://www.w3.org/2000/svg" xmlns:xlink="http://www.w3.org/1999/xlink" x="0px" y="0px"
	 viewBox="94 -4 800 800" style="enable-background:new 94 -4 800 800;" xml:space="preserve">
<style type="text/css">
	.st0{fill:#DE4A39;}
	.st1{fill:#FFFFFF;}
</style>
<circle class="st0" cx="491.5" cy="364.5" r="81.3"/>
<g>
	<path class="st1" d="M472.3,357.9c0,0.2,0,0.4,0,0.5c0,4,0,12.7,0,12.7s16.8,0,17.7,0c0,1.3-1.6,6.6-6.5,9.9
		c-2.9,2-6.2,2.9-9.6,3.1c-2.4,0.2-4.8-0.1-7.2-0.8c-7.4-2.4-12.9-9-13.6-17.2c-0.2-2-0.1-4,0.4-6c2.2-9.6,11.3-16.7,21.7-15.2
		c4.6,0.7,7.3,2.6,9.7,4.7c3.2-3.2,6.4-6.4,9.6-9.6c-0.8-0.6-2.6-2.4-5.9-4.3c-4.9-2.8-10.1-4.2-15.7-4.3c-1.1,0-2.1,0-3.2,0.1
		c-1.8,0.1-3.7,0.4-5.4,0.8c-7.1,1.8-13.1,5.6-17.7,11.3c-4.5,5.5-6.9,11.8-7.3,18.9c-0.2,3,0,6,0.7,8.9c1.9,8.2,6.1,14.8,12.9,19.7
		c5.2,3.8,11.2,5.9,17.6,6.2c3.7,0.2,7.3-0.1,10.8-1.1c6.6-1.7,12.1-5.2,16.3-10.7c6-8,7.4-18.2,5.7-27.9
		C493,357.9,482.7,357.9,472.3,357.9z"/>
	<polygon class="st1" points="543.3,358.3 532.2,358.3 532.2,347.1 532.2,346.8 531.8,346.8 523.5,346.8 523.1,346.8 523.1,347.1 
		523.1,358.3 511.9,358.3 511.6,358.3 511.6,358.6 511.6,367 511.6,367.3 511.9,367.3 523.1,367.3 523.1,378.5 523.1,378.8 
		523.5,378.8 531.8,378.8 532.2,378.8 532.2,378.5 532.2,367.3 543.3,367.3 543.7,367.3 543.7,367 543.7,358.6 543.7,358.3 	"/>
</g>
</svg>
