<?xml version="1.0" encoding="utf-8"?>
<!-- Generator: Adobe Illustrator 19.0.0, SVG Export Plug-In . SVG Version: 6.00 Build 0)  -->
<svg version="1.1" id="Layer_1" xmlns="http://www.w3.org/2000/svg" xmlns:xlink="http://www.w3.org/1999/xlink" x="0px" y="0px"
	 viewBox="0 0 612 792" style="enable-background:new 0 0 612 792;" xml:space="preserve">
<style type="text/css">
	.st0{fill:#5D5D5D;}
	.st1{fill:#60BE81;}
</style>
<g id="XMLID_82_">
	<g id="XMLID_418_">
		<path id="XMLID_419_" class="st0" d="M148.9,130.1c0-2.3-0.2-4.2-0.7-5.6c-0.5-1.4-1.5-3-2.9-4.8c-0.8-1.1-1.9-2.4-3.2-3.9
			c-1.3-1.5-2.7-3.1-4.1-4.8c-1.4-1.7-2.7-3.3-4-4.9c-1.3-1.6-2.3-3-3.1-4.1c-1.2-1.8-2-3.7-2.4-5.6c-0.5-1.9-0.7-4.4-0.7-7.4V73.7
			c0-11.3,5.5-17,16.6-17c5.7,0,9.7,1.4,12,4.2c2.4,2.8,3.6,7,3.6,12.8v18.7h-10.7V73.8c0-1.7-0.4-3-1.1-4c-0.7-1-2-1.5-3.7-1.5
			c-3.2,0-4.9,1.8-4.9,5.4v15.2c0,1.4,0.1,2.7,0.4,3.7c0.2,1.1,0.8,2.2,1.6,3.2c0.6,0.9,1.5,2.1,2.7,3.5c1.2,1.4,2.6,2.9,4,4.6
			c1.4,1.6,2.8,3.3,4.2,5c1.4,1.7,2.6,3.3,3.6,4.7c0.8,1.2,1.5,2.3,2.1,3.4c0.5,1.1,1,2.3,1.3,3.6c0.3,1.2,0.6,2.6,0.7,4.1
			c0.2,1.5,0.2,3.2,0.2,5.2v14.7c0,5.5-1.3,9.7-3.8,12.6c-2.5,2.9-6.7,4.4-12.4,4.4s-9.9-1.5-12.5-4.4c-2.6-2.9-3.9-7.1-3.9-12.6
			v-21.8h11.1v21.8c0,1.7,0.4,3,1.2,4c0.8,1,2.1,1.5,3.8,1.5c3.3,0,5-1.8,5-5.5V130.1z"/>
		<path id="XMLID_421_" class="st0" d="M178.2,160.5v-44.9l-13.7-57.8h12.1c0.7,4.2,1.6,8.5,2.4,12.8c0.9,4.3,1.7,8.3,2.4,12
			c0.7,3.7,1.4,6.9,2,9.7c0.6,2.8,1,4.8,1.1,5.9c0.2-1.2,0.6-3.1,1.2-5.9c0.6-2.8,1.3-6,2.1-9.8c0.8-3.7,1.6-7.8,2.6-12
			c0.9-4.3,1.7-8.5,2.5-12.8h11.2l-14.2,57.8v44.9H178.2z"/>
		<path id="XMLID_423_" class="st0" d="M209.6,160.5V57.8h11.5V149h16.8v11.5H209.6z"/>
	</g>
	<g id="XMLID_407_">
		<path id="XMLID_408_" class="st1" d="M329.9,160.5V57.8h16.6c5.6,0,9.5,1.4,11.9,4.2c2.4,2.8,3.6,7.4,3.6,13.6v20.8
			c0,5.8-1.8,9.4-5.5,10.9c1.8,0.4,3.4,1.5,4.7,3.2c1.3,1.7,2,4.2,2,7.5v25.1c0,6.1-1.4,10.5-4.2,13.2c-2.8,2.7-7,4.1-12.5,4.1
			H329.9z M351.3,75.3c0-2.2-0.4-3.7-1.1-4.6s-2-1.3-3.6-1.3h-5.1V103h5.2c3.1,0,4.6-1.8,4.6-5.4V75.3z M351.5,119.1
			c0-2.2-0.4-3.7-1.1-4.6c-0.7-0.9-2-1.4-3.8-1.4h-5.2V149h5.1c3.3,0,5-2,5-6V119.1z"/>
		<path id="XMLID_412_" class="st1" d="M370.8,160.5V57.8h11.5v102.7H370.8z"/>
		<path id="XMLID_414_" class="st1" d="M391.5,160.5V57.8H403V149h16.8v11.5H391.5z"/>
		<path id="XMLID_416_" class="st1" d="M433,160.5V69.4h-10.7V57.8h32.9v11.6h-10.7v91.1H433z"/>
	</g>
	<g id="XMLID_114_">
		<path id="XMLID_116_" class="st0" d="M290.7,54.8c0-3-2.4-5.4-5.4-5.4h-3.7c-3,0-5.4,2.4-5.4,5.4v12.4h14.5V54.8z"/>
		<rect id="XMLID_111_" x="279.5" y="64.7" class="st0" width="7.9" height="11.5"/>
		<path id="XMLID_120_" class="st0" d="M283.5,71.4c-7.6,0-13.8,6.2-13.8,13.8c0,7.6,6.2,13.8,13.8,13.8s13.8-6.2,13.8-13.8
			C297.3,77.6,291.1,71.4,283.5,71.4z M283.5,91.5c-3.5,0-6.3-2.8-6.3-6.3c0-3.5,2.8-6.3,6.3-6.3c3.5,0,6.3,2.8,6.3,6.3
			C289.9,88.7,287,91.5,283.5,91.5z"/>
		<polygon id="XMLID_115_" class="st0" points="273.4,89 246,145.4 244.1,161.9 255.7,151 282.3,95.6 		"/>
		<path id="XMLID_130_" class="st0" d="M308.7,120.2l-12.6-25.9c-2.2,3-5.4,5.2-9.2,6l11.9,24.9C302.3,124,305.6,122.3,308.7,120.2z
			"/>
		<path id="XMLID_124_" class="st0" d="M311.2,151l11.6,10.9l-1.8-16.4l-5.7-11.8c-3.2,2-6.5,3.7-9.9,5L311.2,151z"/>
		<path id="XMLID_122_" class="st0" d="M283.7,140.9c-15.5,0-30-6.1-40.9-17.1c-2.2-2.2-2.2-5.8,0-8c2.2-2.2,5.8-2.2,8,0
			c8.8,8.8,20.5,13.7,32.9,13.7c12.5,0,24.2-4.9,33-13.8c2.2-2.2,5.7-2.2,8,0c2.2,2.2,2.2,5.7,0,8
			C313.7,134.8,299.2,140.9,283.7,140.9z"/>
	</g>
</g>
<g id="XMLID_2_">
	<path id="XMLID_33_" class="st1" d="M126.4,193.4l4.1-19.7h3.4l4.1,19.7h-3.8l-0.8-4.2H131l-0.7,4.2H126.4z M131.3,186.8h2l-1-7.3
		L131.3,186.8z"/>
	<path id="XMLID_36_" class="st1" d="M151,187.8l3.9-0.8c0,0.4,0,0.8,0,1.1c0,0.3,0.1,0.6,0.1,1c0.1,0.4,0.1,0.7,0.2,0.9
		c0.1,0.2,0.2,0.4,0.4,0.6c0.2,0.2,0.4,0.2,0.7,0.2c0.8,0,1.2-0.5,1.2-1.5c0-1.4-0.8-2.7-2.3-4.1l-1.2-1c-0.4-0.3-0.7-0.6-0.9-0.8
		c-0.2-0.2-0.5-0.5-0.8-0.9c-0.3-0.4-0.6-0.7-0.7-1.1c-0.2-0.3-0.3-0.8-0.4-1.3c-0.1-0.5-0.2-1-0.2-1.6c0-1.6,0.5-2.9,1.5-3.8
		c1-0.9,2.3-1.4,3.9-1.4c1.4,0,2.5,0.5,3.5,1.5c1,1,1.4,2.2,1.4,3.6l0,0.1c0,0.1,0,0.2,0,0.3l-4,0.6c0-0.1,0-0.2,0-0.4
		c0-0.2,0-0.3,0-0.4c0-0.3,0-0.5-0.1-0.8c0-0.2-0.1-0.5-0.2-0.7c-0.1-0.2-0.2-0.4-0.4-0.6c-0.2-0.1-0.4-0.2-0.6-0.2
		c-0.4,0-0.7,0.2-1,0.5c-0.2,0.3-0.3,0.7-0.3,1.2c0,0.4,0.1,0.8,0.2,1.1s0.3,0.7,0.6,1c0.3,0.3,0.5,0.6,0.7,0.8
		c0.2,0.2,0.5,0.5,0.9,0.7c0.4,0.3,0.6,0.5,0.8,0.7c0.5,0.5,1,1,1.4,1.4c0.4,0.4,0.7,0.9,1.1,1.5c0.3,0.5,0.6,1.1,0.8,1.8
		c0.2,0.6,0.3,1.3,0.3,2.1c0,1.4-0.5,2.5-1.4,3.4s-2.1,1.3-3.5,1.3c-0.9,0-1.7-0.2-2.4-0.5c-0.7-0.3-1.2-0.8-1.7-1.4
		c-0.4-0.6-0.7-1.2-1-1.9C151.1,189.3,151,188.6,151,187.8z"/>
	<path id="XMLID_38_" class="st1" d="M168.6,193.4v-16.7h-2.8v-3h9.5v3h-2.8v16.7H168.6z"/>
	<path id="XMLID_40_" class="st1" d="M180.4,186.1v-12.4h3.9V186c0,0.7,0,1.2,0,1.5c0,0.3,0,0.7,0.1,1.2c0,0.5,0.1,0.8,0.1,1
		c0.1,0.2,0.2,0.4,0.3,0.6c0.1,0.2,0.3,0.3,0.5,0.4c0.2,0.1,0.4,0.1,0.7,0.1s0.5,0,0.7-0.1c0.2-0.1,0.4-0.2,0.5-0.4
		c0.1-0.2,0.2-0.4,0.3-0.6c0.1-0.2,0.1-0.5,0.1-0.9c0-0.4,0-0.8,0.1-1.1c0-0.3,0-0.8,0-1.5c0,0,0-0.1,0-0.1v-12.2h3.9v12.4
		c0,0.6,0,1.2-0.1,1.7c0,0.5-0.1,1-0.2,1.6c-0.1,0.5-0.2,1-0.4,1.4c-0.2,0.4-0.4,0.8-0.7,1.2s-0.6,0.7-1,0.9
		c-0.4,0.2-0.9,0.4-1.4,0.6c-0.5,0.1-1.2,0.2-1.8,0.2s-1.3-0.1-1.8-0.2c-0.5-0.1-1-0.3-1.4-0.6c-0.4-0.2-0.7-0.6-1-0.9
		c-0.3-0.4-0.5-0.8-0.7-1.2c-0.2-0.4-0.3-0.9-0.4-1.4c-0.1-0.5-0.2-1.1-0.2-1.6C180.4,187.3,180.4,186.7,180.4,186.1z"/>
	<path id="XMLID_42_" class="st1" d="M197.7,193.4v-19.7h4c1.3,0,2.3,0.1,3.2,0.4c0.8,0.2,1.5,0.6,2,1.2c0.5,0.5,0.8,1.2,1,2
		c0.2,0.8,0.3,1.7,0.3,2.9v6.5c0,0.7,0,1.3-0.1,1.8c0,0.5-0.1,1-0.2,1.5c-0.1,0.5-0.3,0.9-0.5,1.3c-0.2,0.3-0.5,0.7-0.8,1
		c-0.3,0.3-0.7,0.5-1.2,0.7s-1,0.3-1.6,0.4c-0.6,0.1-1.3,0.1-2.1,0.1H197.7z M201.7,190.6c0.4,0,0.7,0,0.9,0c0.2,0,0.4,0,0.6-0.1
		c0.2,0,0.4-0.1,0.5-0.2c0.1-0.1,0.2-0.2,0.3-0.3c0.1-0.1,0.1-0.3,0.2-0.5c0-0.2,0-0.5,0-0.7v-10.6c0-0.6-0.2-1.1-0.6-1.3
		c-0.4-0.2-1-0.3-1.9-0.3V190.6z"/>
	<path id="XMLID_45_" class="st1" d="M214.1,193.4v-19.7h8v2.7h-4.1v5.4h2.9v2.8h-2.9v6.1h4.1v2.7H214.1z"/>
	<path id="XMLID_47_" class="st1" d="M227.4,193.4v-19.7h2.8l4.2,10.3v-10.3h3.2v19.7h-2.7l-4.2-10.9v10.9H227.4z"/>
	<path id="XMLID_49_" class="st1" d="M245.6,193.4v-16.7h-2.8v-3h9.5v3h-2.8v16.7H245.6z"/>
	<path id="XMLID_51_" class="st1" d="M265.6,186.8v-6.5c0-4.7,1.9-7,5.6-7c0.8,0,1.5,0.1,2.1,0.3c0.6,0.2,1.1,0.5,1.5,0.9
		s0.8,0.8,1,1.4c0.3,0.6,0.5,1.2,0.6,1.8c0.1,0.6,0.2,1.4,0.2,2.1v1.7h-3.8v-1.8c0-0.4,0-0.7,0-0.9c0-0.3-0.1-0.6-0.1-0.9
		c-0.1-0.3-0.1-0.6-0.2-0.8c-0.1-0.2-0.3-0.4-0.5-0.5c-0.2-0.1-0.4-0.2-0.7-0.2c-1.1,0-1.7,1-1.7,2.9v8.5c0,1.9,0.6,2.9,1.7,2.9
		c0.3,0,0.6-0.1,0.8-0.3c0.2-0.2,0.4-0.5,0.5-0.8c0.1-0.4,0.2-0.7,0.2-1.1c0-0.3,0.1-0.7,0.1-1.2v-2h3.8v1.7c0,0.8-0.1,1.4-0.2,2.1
		c-0.1,0.6-0.3,1.3-0.5,1.8c-0.3,0.6-0.6,1.1-1,1.5c-0.4,0.4-0.9,0.7-1.5,1c-0.6,0.3-1.3,0.4-2.2,0.4c-0.8,0-1.6-0.1-2.2-0.4
		c-0.6-0.2-1.2-0.6-1.6-1c-0.4-0.4-0.8-0.9-1-1.5s-0.5-1.2-0.6-1.9C265.6,188.4,265.6,187.6,265.6,186.8z"/>
	<path id="XMLID_53_" class="st1" d="M282,186.9v-6.6c0-4.7,1.9-7,5.6-7c3.7,0,5.6,2.3,5.6,7v6.5c0,0.8-0.1,1.5-0.2,2.2
		c-0.1,0.7-0.3,1.3-0.6,1.9c-0.3,0.6-0.6,1.1-1,1.5c-0.4,0.4-1,0.7-1.6,1c-0.6,0.2-1.4,0.4-2.2,0.4c-0.8,0-1.6-0.1-2.2-0.4
		s-1.2-0.6-1.6-1c-0.4-0.4-0.8-0.9-1-1.5c-0.3-0.6-0.5-1.2-0.6-1.9C282.1,188.5,282,187.7,282,186.9z M289.4,187.8v-8.5
		c0-1.9-0.6-2.9-1.7-2.9c-0.3,0-0.6,0.1-0.9,0.3c-0.2,0.2-0.4,0.4-0.5,0.7s-0.2,0.6-0.2,0.9c0,0.3-0.1,0.6-0.1,1v8.5
		c0,1.9,0.6,2.9,1.7,2.9C288.8,190.7,289.4,189.8,289.4,187.8z"/>
	<path id="XMLID_56_" class="st1" d="M299.2,193.4v-19.7h4.6l2,13.1l2.2-13.1h4.5v19.7h-2.9l-0.1-13.8c-0.2,1.4-0.6,3.7-1.1,6.9
		s-0.9,5.5-1.1,6.9h-2.9l-2.4-13.9l-0.1,13.9H299.2z"/>
	<path id="XMLID_58_" class="st1" d="M318.8,193.4v-19.7h4.6c1.7,0,2.9,0.5,3.6,1.4c0.8,1,1.1,2.3,1.1,4.1c0,0.9-0.1,1.7-0.3,2.3
		c-0.2,0.7-0.4,1.2-0.7,1.6c-0.3,0.4-0.7,0.8-1.2,1c-0.5,0.3-1,0.4-1.5,0.5c-0.5,0.1-1.2,0.2-1.9,0.2v8.4H318.8z M322.7,182.2
		c0.2,0,0.4,0,0.5,0s0.3-0.1,0.4-0.1c0.1,0,0.2-0.1,0.3-0.2c0.1-0.1,0.2-0.2,0.2-0.2c0.1-0.1,0.1-0.2,0.2-0.3c0-0.1,0.1-0.3,0.1-0.4
		s0-0.2,0-0.5c0-0.2,0-0.4,0-0.5c0-0.1,0-0.3,0-0.6c0-0.1,0-0.1,0-0.2c0-0.3,0-0.5,0-0.6c0-0.1,0-0.3,0-0.6c0-0.2-0.1-0.4-0.1-0.5
		c0-0.1-0.1-0.2-0.2-0.4c-0.1-0.1-0.2-0.3-0.3-0.3c-0.1-0.1-0.3-0.1-0.5-0.2c-0.2-0.1-0.4-0.1-0.7-0.1V182.2z"/>
	<path id="XMLID_61_" class="st1" d="M332.6,193.4l4.1-19.7h3.4l4.1,19.7h-3.8l-0.8-4.2h-2.5l-0.7,4.2H332.6z M337.5,186.8h2l-1-7.3
		L337.5,186.8z"/>
	<path id="XMLID_64_" class="st1" d="M349.5,193.4v-19.7h2.8l4.2,10.3v-10.3h3.2v19.7H357l-4.2-10.9v10.9H349.5z"/>
	<path id="XMLID_66_" class="st1" d="M365.9,193.4v-19.7h3.9v19.7H365.9z"/>
	<path id="XMLID_68_" class="st1" d="M375.8,186.9v-6.6c0-4.7,1.9-7,5.6-7c3.7,0,5.6,2.3,5.6,7v6.5c0,0.8-0.1,1.5-0.2,2.2
		c-0.1,0.7-0.3,1.3-0.6,1.9c-0.3,0.6-0.6,1.1-1,1.5c-0.4,0.4-1,0.7-1.6,1c-0.6,0.2-1.4,0.4-2.2,0.4c-0.8,0-1.6-0.1-2.2-0.4
		s-1.2-0.6-1.6-1c-0.4-0.4-0.8-0.9-1-1.5c-0.3-0.6-0.5-1.2-0.6-1.9C375.9,188.5,375.8,187.7,375.8,186.9z M383.1,187.8v-8.5
		c0-1.9-0.6-2.9-1.7-2.9c-0.3,0-0.6,0.1-0.9,0.3c-0.2,0.2-0.4,0.4-0.5,0.7s-0.2,0.6-0.2,0.9c0,0.3-0.1,0.6-0.1,1v8.5
		c0,1.9,0.6,2.9,1.7,2.9C382.6,190.7,383.1,189.8,383.1,187.8z"/>
	<path id="XMLID_71_" class="st1" d="M393,193.4v-19.7h2.8L400,184v-10.3h3.2v19.7h-2.7l-4.2-10.9v10.9H393z"/>
	<path id="XMLID_73_" class="st1" d="M416.7,193.4l4.1-19.7h3.4l4.1,19.7h-3.8l-0.8-4.2h-2.5l-0.7,4.2H416.7z M421.6,186.8h2l-1-7.3
		L421.6,186.8z"/>
	<path id="XMLID_76_" class="st1" d="M433.6,193.4v-19.7h4.6c1.7,0,2.9,0.5,3.6,1.4c0.8,1,1.1,2.3,1.1,4.1c0,0.9-0.1,1.7-0.3,2.3
		c-0.2,0.7-0.4,1.2-0.7,1.6c-0.3,0.4-0.7,0.8-1.2,1c-0.5,0.3-1,0.4-1.5,0.5c-0.5,0.1-1.2,0.2-1.9,0.2v8.4H433.6z M437.5,182.2
		c0.2,0,0.4,0,0.5,0c0.2,0,0.3-0.1,0.4-0.1c0.1,0,0.2-0.1,0.3-0.2c0.1-0.1,0.2-0.2,0.2-0.2c0.1-0.1,0.1-0.2,0.2-0.3
		c0-0.1,0.1-0.3,0.1-0.4s0-0.2,0-0.5c0-0.2,0-0.4,0-0.5c0-0.1,0-0.3,0-0.6c0-0.1,0-0.1,0-0.2c0-0.3,0-0.5,0-0.6c0-0.1,0-0.3,0-0.6
		c0-0.2-0.1-0.4-0.1-0.5c0-0.1-0.1-0.2-0.2-0.4c-0.1-0.1-0.2-0.3-0.3-0.3c-0.1-0.1-0.3-0.1-0.5-0.2c-0.2-0.1-0.4-0.1-0.7-0.1V182.2z
		"/>
	<path id="XMLID_79_" class="st1" d="M448.4,193.4v-19.7h4.6c1.7,0,2.9,0.5,3.6,1.4c0.8,1,1.1,2.3,1.1,4.1c0,0.9-0.1,1.7-0.3,2.3
		c-0.2,0.7-0.4,1.2-0.7,1.6c-0.3,0.4-0.7,0.8-1.2,1c-0.5,0.3-1,0.4-1.5,0.5c-0.5,0.1-1.2,0.2-1.9,0.2v8.4H448.4z M452.3,182.2
		c0.2,0,0.4,0,0.5,0c0.2,0,0.3-0.1,0.4-0.1c0.1,0,0.2-0.1,0.3-0.2c0.1-0.1,0.2-0.2,0.2-0.2c0.1-0.1,0.1-0.2,0.2-0.3
		c0-0.1,0.1-0.3,0.1-0.4c0-0.1,0-0.2,0-0.5c0-0.2,0-0.4,0-0.5c0-0.1,0-0.3,0-0.6c0-0.1,0-0.1,0-0.2c0-0.3,0-0.5,0-0.6
		c0-0.1,0-0.3,0-0.6c0-0.2-0.1-0.4-0.1-0.5c0-0.1-0.1-0.2-0.2-0.4c-0.1-0.1-0.2-0.3-0.3-0.3c-0.1-0.1-0.3-0.1-0.5-0.2
		c-0.2-0.1-0.4-0.1-0.7-0.1V182.2z"/>
</g>
</svg>
