<?xml version="1.0" encoding="utf-8"?>
<!-- Generator: Adobe Illustrator 19.0.0, SVG Export Plug-In . SVG Version: 6.00 Build 0)  -->
<svg version="1.1" id="Layer_1" xmlns="http://www.w3.org/2000/svg" xmlns:xlink="http://www.w3.org/1999/xlink" x="0px" y="0px"
	 viewBox="0 0 612 792" style="enable-background:new 0 0 612 792;" xml:space="preserve">
<g id="XMLID_1_">
	<path id="XMLID_13_" d="M402.7,204.7c0,22.6-0.1,45.2,0.1,67.9c0,3.1-0.4,4.3-4,4.2c-13.5-0.3-27-0.2-40.5,0
		c-3.1,0-3.7-0.9-3.6-3.8c0.2-5.6-0.1-11.3,0.1-16.9c0.1-2.9-0.8-3.5-3.5-3.5c-24,0.1-48,0.1-72,0.1c-37.5,0-75,0-112.5-0.1
		c-3.2,0-4.2,0.6-4.2,4c0.1,93.4,0.1,186.7,0,280.1c0,3.4,1,4,4.2,4c61.2-0.1,122.5-0.1,183.7,0c3.4,0,4.5-0.8,4.3-4.3
		c-0.3-5.7,0-11.5-0.1-17.2c0-1.9,0.4-2.6,2.5-2.6c14.4,0.1,28.7,0.1,43.1,0c2.9,0,2.4,1.7,2.4,3.4c0,22.9,0,45.7,0,68.6
		c-94.8,0-189.7,0-284.5,0.1c-2.6,0-3.6-0.3-3.6-3.3c0.1-125.8,0.1-251.6,0-377.4c0-3.1,1-3.3,3.6-3.3
		C213.1,204.8,307.9,204.7,402.7,204.7z"/>
	<path id="XMLID_12_" d="M498.7,396.7c-28.7,28.7-57.5,57.4-86.1,86.2c-2.3,2.3-3.5,2.4-5.8,0c-9.3-9.6-18.8-19-28.3-28.4
		c-2.1-2.1-2.5-3.2-0.1-5.4c8.5-8.2,16.8-16.7,25.2-25.1c0.9-0.9,1.7-1.8,3.1-3.3c-2,0-3.3,0-4.6,0c-38.5,0-77,0-115.4,0.1
		c-3,0-4-0.6-3.9-3.8c0.2-13.5,0.2-27,0-40.5c-0.1-3.3,1.1-3.8,4-3.8c38.4,0.1,76.7,0.1,115.1,0.1c1.4,0,2.7,0,4.1,0
		c0.1-1.6-1.1-2-1.8-2.8c-8.6-8.7-17.2-17.4-26-25.9c-1.8-1.8-2-2.7-0.1-4.6c9.8-9.6,19.6-19.3,29.1-29.2c2.1-2.2,3.2-2,5.3,0
		c27.7,27.8,55.4,55.5,83.2,83.2c0.9,0.9,1.5,2.3,3.1,2.4C498.7,396.2,498.7,396.5,498.7,396.7z"/>
</g>
</svg>
