<?xml version="1.0" encoding="utf-8"?>
<!-- Generator: Adobe Illustrator 19.0.0, SVG Export Plug-In . SVG Version: 6.00 Build 0)  -->
<svg version="1.1" id="Layer_1" xmlns="http://www.w3.org/2000/svg" xmlns:xlink="http://www.w3.org/1999/xlink" x="0px" y="0px"
	 viewBox="0 0 595.3 841.9" style="enable-background:new 0 0 595.3 841.9;" xml:space="preserve">
<g>
	<path d="M485.5,343.2c-62.6-55.2-122.7-68.9-136.3-71.4c-24.1-5.4-48.7-7.3-73.6-4.9c-49.6,4.8-94.1,23.5-134.8,51.5
		C102.2,345,69.1,377.3,41,414.9c0,0.7,0,1.3,0,2c16.9,22.6,35.8,43.4,56.8,62.3c0,0,7.2,6.9,19.8,16.8c6.4,5.1,12.9,10,19.6,14.8
		c0.9,0.6,1.6,1,2.4,1.2c21.7,14.7,50.7,31.2,83.5,42c0.5,0.3,1.2,0.6,2.1,0.9c4.2,1.3,8.5,2.4,12.8,3.5c16.5,4.3,33.7,7,51.5,7.3
		c12.6,0.4,25.2-0.2,37.9-1.9c42.7-5.6,81.6-21.6,117.5-45c42.2-27.4,78-61.8,108.2-101.9c0-0.7,0-1.3,0-2
		C533.1,388.4,510.7,364.4,485.5,343.2z M319.1,312.2C319.1,312.2,319.1,312.2,319.1,312.2c2.7,0.6,5.4,1.3,8.1,2
		c32.2,9.3,58.1,33.3,70,64.3c-0.1,1.1,0,2.2,0.4,3.6c4,12,5.9,24.2,5.2,36.9c-2.2,43.7-23.4,75-62.5,93.7
		c-24.3,11.6-49.8,12.3-75.5,4.4c-2.4-0.7-4.7-1.6-7-0.5c-27.7-11-49.7-33.1-60.4-60.9c0.2-1.1,0.1-2.3-0.4-3.8
		c-2.5-6.9-4.4-14-5.2-21.3c-1.8-16.3-0.7-31.5,3.2-45.3c13.6-43.5,54.2-75.1,102.2-75.1c7.3,0,14.4,0.7,21.2,2.1
		C318.7,312.1,318.9,312.2,319.1,312.2z M99.5,412.2c16.8-17.9,34.5-34.7,54.2-49.4c0.4-0.3,0.9-0.6,1.7-0.8
		c-5.9,15.9-9.1,33.1-9.1,51.3c0,17.5,3,34.3,8.5,49.9c0.9,2.8,1.9,5.6,3,8.4c-8.6-5.5-15.3-11.4-22.1-17.1
		c-12.8-10.7-24.4-22.6-35.9-34.6C97.3,417.2,96.9,415,99.5,412.2z M494.4,419.7c-17.1,18.1-35,35.2-55.1,49.9
		c-0.6,0.5-1.4,0.8-2.9,1.7c0.8-2.2,1.6-4.4,2.3-6.6c5.8-16,9-33.3,9-51.3c0-18.3-3.3-35.6-9.2-51.5c6.1,3.7,10.8,8,15.7,12
		c14.1,11.5,26.9,24.3,39.5,37.5C496.3,414,497.6,416.3,494.4,419.7z"/>
	<path d="M232.3,415.3c0,35.7,29,64.7,64.7,64.7c0,0,0.1,0,0.1,0c0.2,0.1,0.5,0.1,0.8,0.1c1.2,0.1,2.3,0,3.5,0
		c4.4,0.1,8.6-1,12.8-2.1c16-4.5,28.1-13.6,36.7-26.8c1.9-2.8,3.5-5.8,5-8.9c0.3-0.6,0.5-1.2,0.7-1.7c0.1-0.1,0.1-0.2,0.1-0.4
		c0-0.1,0.1-0.2,0.1-0.3c3.1-7.6,4.8-15.9,4.8-24.6c0-35.7-29-64.7-64.7-64.7S232.3,379.6,232.3,415.3z"/>
</g>
</svg>
