<?xml version="1.0" encoding="utf-8"?>
<!-- Generator: Adobe Illustrator 19.0.0, SVG Export Plug-In . SVG Version: 6.00 Build 0)  -->
<svg version="1.1" id="Layer_1" xmlns="http://www.w3.org/2000/svg" xmlns:xlink="http://www.w3.org/1999/xlink" x="0px" y="0px"
	 viewBox="-345 244 100 125" style="enable-background:new -345 244 100 125;" xml:space="preserve">
<path d="M-270.2,285.3h-1V271c0-13.1-10.7-23.8-23.8-23.8s-23.8,10.7-23.8,23.8v14.3h-1c-5.1,0-9.2,4.1-9.2,9.2v37.1
	c0,5.1,4.1,9.2,9.2,9.2h49.6c5.1,0,9.2-4.1,9.2-9.2v-37.1C-261,289.5-265.1,285.3-270.2,285.3z M-309.8,271
	c0-8.2,6.7-14.8,14.8-14.8s14.8,6.7,14.8,14.8v14.3h-29.7V271z M-291.2,317.3v9.6c0,2.1-1.7,3.8-3.8,3.8s-3.8-1.7-3.8-3.8v-9.6
	c-3.1-1.4-5.2-4.5-5.2-8.1c0-5,4-9,9-9s9,4,9,9C-286,312.7-288.1,315.8-291.2,317.3z"/>
</svg>
