<?xml version="1.0" encoding="utf-8"?>
<!-- Generator: Adobe Illustrator 19.0.0, SVG Export Plug-In . SVG Version: 6.00 Build 0)  -->
<svg version="1.1" id="Layer_1" xmlns="http://www.w3.org/2000/svg" xmlns:xlink="http://www.w3.org/1999/xlink" x="0px" y="0px"
	 viewBox="-139 -14 512 640" style="enable-background:new -139 -14 512 640;" xml:space="preserve">
<path d="M-137.8,498c-2.6-29-1.2-57.2,7.3-84.3c5.3-16.9,18.8-27.9,35.3-33.1c23.5-7.4,47.6-12.8,71.2-19.9
	c14-4.2,28.2-8.8,41.3-15.3c29.7-14.8,34.6-36.2,20.8-66.7C22.7,244.9,8.6,210.3-3,175c-10.6-32.3-11-65.9-2.3-99.4
	C7.2,27.2,43-5.3,92.4-12.1c35.8-4.9,70-1.3,100.5,20.9c45.4,33,53.9,80.4,48.6,131.8c-4.9,47.7-22.1,92-44.3,134.2
	c-19,36.1-11.9,59.1,25.9,74c24.6,9.7,50.7,15.5,76.2,23c10.4,3.1,21.3,5.4,31.2,9.8c19.2,8.5,33.4,22.1,35.8,44.6
	c2.5,23.6,4.5,47.2,6.8,71.9L-137.8,498L-137.8,498z"/>
</svg>
