<?xml version="1.0" encoding="utf-8"?>
<!-- Generator: Adobe Illustrator 19.0.0, SVG Export Plug-In . SVG Version: 6.00 Build 0)  -->
<svg version="1.1" id="Layer_1" xmlns="http://www.w3.org/2000/svg" xmlns:xlink="http://www.w3.org/1999/xlink" x="0px" y="0px"
	 viewBox="0 0 612 792" style="enable-background:new 0 0 612 792;" xml:space="preserve">
<g>
	<path d="M101.8,522.2c0-81.6,0-163.2,0-244.8c1.1,0.7,2.3,1.3,3.4,2c62,43.5,124,87.1,186.1,130.6c9.9,7,18.7,6.9,28.8,0
		c62.7-43.5,125.3-87.1,188-130.6c1.1-0.7,2.3-1.3,3.4-2c0,81.6,0,163.2,0,244.8c-0.2,0.3-0.5,0.6-0.7,0.9
		c-4.4,11.3-11.2,16-23.4,16c-18,0-36,0-54,0c-102.7,0-205.5,0-308.2,0.1c-9.7,0-16.5-4.1-21.2-12.3
		C103.1,525.4,102.5,523.8,101.8,522.2z"/>
	<path d="M476,252.8c-1.9,1.4-3.1,2.2-4.2,3c-53.9,37.6-107.7,75.2-161.5,113c-2.7,1.9-4.5,1.9-7.2,0
		c-53.8-37.7-107.7-75.3-161.5-113c-1.2-0.8-2.3-1.7-4.2-3C250.4,252.8,362.7,252.8,476,252.8z"/>
</g>
</svg>
